<svg width="1150" height="1268" fill="none" xmlns="http://www.w3.org/2000/svg"><path d="M574.881 155.896c-273.816-4.699-398.486-36.895-552.692-142.73C-3.805-4.676-6.263-4.44 11.167 14.215c55.924 59.862 173.38 124.713 255.613 141.13 127.309 25.417 275.294 35.554 374.463 25.65l15.449-1.543-1.537 15.375c-.846 8.455-2.885 20.099-4.529 25.874-6.273 22.019-5.683 95.697.85 106.761.576.97 4.771-1.865 9.325-6.3 10.05-9.792 9.298-7.293-6.74 22.383-10.102 18.694-12.652 25.724-16.739 46.198-5.908 29.584-4.472 28.063-22.843 24.198-21.952-4.618-23.422-5.697-22.301-16.371.515-4.882 1.443-22.579 2.064-39.325l1.132-30.449-18.788 19.949c-23.08 24.506-44.383 82.583-33.426 91.128.416.321 11.618 5.901 24.897 12.396 46.256 22.626 69.565 50.072 72.922 85.867l1.121 11.949 7.999-6.43c11.041-8.874 12.904-22.429 6.187-45.056-5.731-19.313-6.6-18.571 15.948-13.626 42.307 9.279 51.526 15.472 65.074 43.707 8.335 17.371 9.918 19.479 12.815 17.075 2.822-2.342 3.945-1.825 7.693 3.544 22.813 32.683 66.81 51.639 136.713 58.901 100.792 10.468 120.791 44.339 107.201 181.527-3.541 35.725-4.33 73.4-1.47 70.242 1.85-2.048 132.56-325.228 132.56-327.763 0-.775-5.43 3.75-12.07 10.052-50 47.469-74.87 51.318-155.088 24.011-56.365-19.187-54.892-18.425-68.706-35.455-45.545-56.143-98.624-77.525-201.879-81.315-59.899-2.199-69.05-4.183-82.187-17.832-4.789-4.973-10.693-10.107-13.122-11.407-10.409-5.573-3.004-5.519 14.478.105 10.393 3.343 19.708 6.077 20.702 6.077.993 0 5.009-11.993 8.922-26.652 5.684-21.281 8.553-28.37 14.245-35.174 8.902-10.642 11.829-17.53 14.781-34.785 1.283-7.498 2.809-15.793 3.392-18.431l1.058-4.798-8.612 4.395c-4.736 2.417-9.298 4.103-10.136 3.746-.838-.355 3.92-29.468 10.573-64.694 13.806-73.095 16.03-94.508 12.448-119.865-5.486-38.827-8.669-42.27-46.182-49.967l-18.48-3.79-11.124 5.638-11.124 5.638 11.343 1.344c43.499 5.153 48.502 10.008 51.024 49.52l1.262 19.76-83.457-1.432z" fill="#851B13"/><path d="M680.112 614.441c-1.065-32.825-.723-32.191-21.123-39.069l-14.3-4.821-1.4 24.693c-.771 13.58-3.286 32.668-5.59 42.416-12.324 52.179-8.903 57.836 64.726 107.089 88.538 59.224 124.479 130.247 167.867 331.721 23.811 110.55 36.181 146.18 59.582 171.6 17.944 19.49 10.329 18.29 121.596 19.09l98.15.7v-19.87l-44.62 1.21c-24.54.66-64.32 3.26-88.41 5.77-36.788 3.84-44.235 4.12-46.534 1.73-6.368-6.61-53.17-65.8-52.532-66.44.384-.39 11.903 1.65 25.593 4.53 40.514 8.52 69.083 12.01 98.233 11.99 28.85-.01 34.91-.83 70.48-9.49 12.12-2.96 25.06-5.38 28.74-5.38 9.42 0 10.65-3.71 1.77-5.38-8.07-1.51-12.96-.98-37.23 4.03-15.31 3.16-85.84 10.28-87.31 8.81-.38-.38 7.29-12.78 17.04-27.54l17.72-26.84-23.38-17.8c-12.86-9.79-27.16-21.38-31.776-25.75-5.014-4.74-14.109-10.08-22.57-13.24l-14.171-5.3v22.79c0 26.82 4.371 37.58 28.215 69.42 15.852 21.17 16.142 19.83-3.147 14.42-68.173-19.1-85.773-62.51-56.536-139.43l2.211-5.82 23.842 1.37c27.816 1.59 46.732 6.75 61.372 16.77 24.33 16.64 65.83 37.09 75.27 37.09 2.31 0-4.16-12.41-12.7-24.38-22.03-30.89-49.99-43.11-107.752-47.11-14.281-.99-26.215-2.08-26.517-2.42-.305-.35 2.162-34.178 5.482-75.179 3.321-41.001 5.767-75.372 5.437-76.38-.328-1.006-14.188 28.099-30.799 64.677-16.612 36.58-30.825 66.892-31.587 67.372-2.249 1.38-14.323-39.349-19.838-66.919-8.18-40.885-9.53-61.575-9.53-146.038 0-94.584-.288-95.31-13.624-34.432-9.836 44.905-10.533 47.082-13.594 42.406-9.989-15.263-29.284-36.579-41.169-45.48-13.357-10.006-21.618-14.563-57.667-31.822-39.453-18.889-55.995-50.125-57.92-109.364z" fill="#851B13"/><path d="M1149.62 1120.95l-25.72-9.54c-30.45-11.31-28.87-11.03-28.87-4.97 0 2.66-1.1 5.93-2.44 7.28-3.28 3.28 33.17 20.96 47.05 22.82l9.98 1.34v-16.93z" fill="#851B13"/></svg>