<svg width="1979" height="795" fill="none" xmlns="http://www.w3.org/2000/svg"><path fill-rule="evenodd" clip-rule="evenodd" d="M1885.24 6.96c64.38 29.8 110.49 132.282 87.97 195.538-30.6 85.96-129.45 128.199-428.4 183.056-68.34 12.54-118.41 22.943-137.67 28.602-8.84 2.596-9.23 2.968-19.58 18.996-11.79 18.254-12.08 18.498-9.68 8.189 2.39-10.254.66-59.306-2.43-68.913-1.32-4.119-2.94-13.208-3.59-20.199l-1.19-12.71 12.08 1.2c77.6 7.701 191.14-.061 292.14-19.968 63.81-12.579 156.2-63.537 199.81-110.208 12.49-13.369 9.28-12.617-15.57 3.644-123.75 80.978-212.37 103.297-424.62 106.947l-65.23 1.123 1.06-15.428.07-1.019c.85-12.558 1.41-20.684 5.55-26.052 7.58-9.841 27.2-10.406 82.8-12.007l2.47-.071c222.41-6.411 368.94-40.157 422.37-97.268 33.33-35.629 31.99-71.713-5.4-145.978l-.99-1.974-.01-.001c-6.79-13.482-9.93-19.717-8.41-21.22 1.32-1.293 6.08.915 14.94 5.022l1.51.698zm-573.18 199.265c36.01 4.578 58.27 11.194 71.42 21.224 5.3 4.042 19.8 29.55 17.53 30.842-.69.393-6.41 1.649-12.72 2.793-42.71 7.735-47.11 29.087-27.37 132.766 5.24 27.497 8.98 50.222 8.32 50.499-.66.279-4.2-1.028-7.88-2.901-3.67-1.874-6.68-3.105-6.68-2.736 0 12.816 7.79 36.289 14.63 44.075 4.06 4.631 6.48 10.586 11.12 27.336 3.26 11.779 6.54 21.415 7.3 21.415.76 0 8.01-2.134 16.13-4.743 13.65-4.39 19.43-4.432 11.3-.082-1.9 1.015-6.51 5.022-10.24 8.904-10.26 10.654-17.41 12.203-64.17 13.919-54.38 1.997-75.85 6.308-105.35 21.165-21.61 10.874-31.28 18.911-57.98 48.165-6.92 7.579-8.19 8.187-40.24 19.189-53.39 18.331-71.29 20.334-92.54 10.355-9.04-4.241-15.95-9.278-41.08-29.921l-4.897-4.025 2.327 5.664c1.28 3.114 24.4 60.429 51.38 127.367 1.66 4.096 3.26 8.073 4.81 11.933 30.3 75.177 42.6 105.717 46.29 104.71 2.52-.688 1-16.144-1.56-42.173l-.01-.083c-.19-1.927-.38-3.911-.58-5.952-7-71.674-1.5-102.326 22.31-124.371 12.63-11.692 19.6-13.607 69.6-19.098 46.9-5.152 81.85-21.122 98.54-45.023 2.95-4.227 3.79-4.606 6.05-2.73 2.31 1.922 3.45.399 9.77-13.138 10.29-22.004 17.8-27.062 50.99-34.343l1.46-.321.83-.184.62-.138c7.09-1.578 10.5-2.336 11.65-1.058 1.07 1.182.21 4.106-1.45 9.735-.23.779-.47 1.61-.73 2.495-4.83 16.636-3.56 28.984 3.51 34.018 4.01 2.853 4.8 4.551 4.78 10.274-.04 11.844-1.09 13.464-10.63 16.473-15.63 4.927-15.81 5.262-16.37 30.598-.99 44.846-14.46 70.579-44.53 85.057a8355.84 8355.84 0 00-22.7 10.972c-21.33 10.35-40.7 27.851-55.01 49.68-2.43 3.717-2.91 2.255-10.44-32.005-4.34-19.746-8.54-36.603-9.33-37.459-.83-.898-1.44 25.295-1.44 61.942 0 66.675-1.06 83.337-7.23 114.184-4.25 21.221-13.99 54.343-15.67 53.3-.61-.375-11.75-24.105-24.75-52.731-13-28.624-23.83-50.974-24.06-49.664-.23 1.308 1.7 28.196 4.29 59.75 2.59 31.553 4.52 57.591 4.29 57.865-.22.26-9.53 1.12-20.68 1.89-48.28 3.34-75.82 17.34-90.33 45.91-7.58 14.92 18.63 5.84 55.05-19.06 11.43-7.82 26.2-11.85 47.91-13.09l18.62-1.07 1.66 4.38c13.13 34.53 11.87 76.82-2.67 89.59-15.73 13.81-60.54 28.23-50.06 16.11 20.5-23.72 28.15-40.63 28.19-62.38l.04-17.55-11.03 4.15c-6.74 2.54-13.93 6.82-18.48 10.99-4.09 3.76-15.31 12.8-24.94 20.09l-17.51 13.25 13.97 20.91c7.69 11.51 13.72 21.18 13.4 21.49-1.22 1.22-56.28-4.39-68.19-6.95-6.94-1.5-17.04-2.87-22.452-3.06l-6.677-.24v1.03l-7.937-.56c-4.365-.3-11.811.6-16.549 2.01-7.6 2.26-31.13 5.22-66.211 8.33-8.878.78-10.94.55-9.948-1.12.688-1.16 7.114-10.9 14.282-21.64 10.785-16.17 12.626-19.84 10.677-21.31-21.366-16.11-43.801-34.04-44.242-35.36-.312-.94-5.726-3.8-12.033-6.36l-11.466-4.66-1.326 6.73c-2.144 10.89-.243 29.16 3.877 37.25 4.684 9.2 18.209 29.27 24.715 36.69 6.196 7.05 6.13 7.05-16.223-.03-46.171-14.62-53.907-30.79-41.929-87.67l4.66-22.13 8.64-.49c26.734-1.54 42.959 3.13 70.08 20.15 32.121 20.16 50.902 25.5 44.37 12.61-14.51-28.63-42.01-42.99-88.398-46.14-11.57-.79-21.446-1.84-21.945-2.34-.5-.497 1.238-27.826 3.859-60.73 2.621-32.905 4.319-59.295 3.773-58.646-.547.648-11.587 24.599-24.535 53.225-12.946 28.626-24.039 51.492-24.651 50.813-1.826-2.024-7.723-21.374-12.116-39.752-8.735-36.54-9.45-45.167-10.024-121.086-.295-39.1-.795-71.348-1.109-71.665-.317-.315-4.083 15.449-8.371 35.031-4.29 19.582-8.193 36.962-8.676 38.624-.709 2.433-1.93 1.461-6.285-5.006-15.549-23.089-31.668-35.835-66.553-52.623-39.839-19.173-52.298-40.561-52.298-89.779 0-23.179-.694-24.371-17.198-29.574l-8.619-2.716-.937-9.089c-.892-8.635-.658-9.397 4.712-15.34 6.87-7.606 7.611-18.564 2.411-35.665-.207-.68-.405-1.324-.593-1.933l-.012-.041v-.001c-1.46-4.735-2.263-7.34-1.315-8.449 1.157-1.356 4.928-.481 13.306 1.464l.976.227 1.288.298.596.137c32.618 7.513 40.513 13.038 50.435 35.306 5.622 12.617 6.358 13.546 9.304 11.743 2.583-1.579 3.467-1.482 4.599.503 15.041 26.399 51.291 42.523 108.877 48.43 51.791 5.311 68.469 15.169 79.691 47.096 7.658 21.788 7.823 32.423 1.78 115.105-.725 9.916-.87 21.887-.325 26.601l.994 8.57 24.902-61.842c13.695-34.014 37.031-91.884 51.859-128.599l26.957-66.756-10.88 9.566c-43.521 38.267-57.757 39.664-133.453 13.098l-29.492-10.351-11.495-13.651c-37.02-43.962-76.574-59.765-156.894-62.687-49.812-1.813-53.194-2.661-67.923-17.033l-10.66-10.4 15.561 4.947c1.508.479 2.879.931 4.128 1.342 5.857 1.928 9.038 2.975 11.21 1.929 2.583-1.244 3.739-5.447 6.271-14.645.455-1.651.953-3.463 1.513-5.447 4.194-14.883 7.025-21.683 11.439-27.464 7.085-9.281 8.393-12.5 11.387-28.015l.162-.837v-.001c1.889-9.781 2.651-13.73 1.401-14.529-.847-.541-2.616.363-5.584 1.878l-.373.191a78.91 78.91 0 00-.847.439l-.493.258c-2.08 1.096-3.583 1.887-4.481 1.446-2.336-1.147-.575-10.639 5.768-44.83l.001-.002.677-3.65.893-4.82c12.179-65.786 12.351-67.466 9.199-90.063-4.192-30.056-6.813-33.051-33.506-38.265-7.663-1.498-14.772-2.994-15.797-3.327-6.445-2.093 14.79-31.408 27.372-37.782 30.29-15.351 120.747-23.181 169.472-14.674 28.628 5 46.324 11.051 85.972 29.401 42.932 19.87 69.047 26.913 105.887 28.557l20.611.919v-.562l17.207-.405c37.73-.885 67.44-8.776 115.21-30.596 67-30.601 115.15-37.635 191.31-27.951zM990.085 1072.24c-.04.59-.08.88-.122.88-.844 0-9.512-2.94-19.263-6.54l-1.383-.51c-13.417-4.94-17.223-6.35-17.947-5.4-.287.38-.09 1.12.185 2.16l.072.27c.444 1.7.007 3.59-.974 4.2-5.673 3.5 17.969 17.34 34.019 19.91l4.966.79 8.53-2.38c14.422-4.03 34.492-14.57 32.172-16.89-1.02-1.02-1.85-3.54-1.85-5.62 0-.27.01-.52.02-.76l.01-.14v-.05l.01-.24c.04-.87.07-1.49-.22-1.82-.75-.85-3.62.18-13.76 3.82h-.01v.01h-.01l-.24.09c-1.58.56-3.33 1.19-5.27 1.88-8.49 3.03-16.179 5.6-18.935 6.34zm266.135-457.007c4.57-3.827 8.31-7.628 8.31-8.446 0-1.897-3.66-1.631-13.93 1.009-4.51 1.159-11.03 2.177-14.5 2.264l-6.3.158 1.09 7.958c3.62 26.288-25.95 42.075-56.34 30.086-6.43-2.536-9.66-3.047-11.85-1.873-2.73 1.457-11.28 12.549-11.27 14.613 0 .467 11.78 1.081 26.16 1.365 36.07.711 40.58-1.346 60.78-27.721 5.24-6.849 13.27-15.585 17.85-19.413zm-93.64 519.917c-3.1 3.84-12.86 16.01-21.68 27.05-8.83 11.04-17.08 20.08-18.33 20.08-1.26 0-17.22-1.55-35.48-3.44-18.26-1.88-47.94-3.91-65.97-4.5l-29.63-.97v.88l-34.832 1.03c-19.157.56-45.159 2.13-57.78 3.49-12.622 1.36-27.743 2.9-33.603 3.43l-10.654.96-21.309-26.64c-11.72-14.66-21.537-27.19-21.814-27.85-.279-.66 3.409-.16 8.196 1.13 4.784 1.28 18.907 4.23 31.384 6.55 43.426 8.07 76.154 7.82 110.056-.84 10.802-2.76 22.052-5.02 24.997-5.02h1.302l-.014-.66h5.541c3.049 0 12.84 1.82 21.77 4.04 28.39 7.08 31.95 7.58 54.4 7.6 23.54.01 48.01-2.93 75.74-9.12l.61-.13c14.53-3.25 20.18-4.51 20.89-3.16.45.85-1.1 2.77-3.63 5.89l-.16.2zM102.406 22.809c5.775-11.061 10.501-20.466 10.501-20.9 0-3.409-22.645 6.415-37.404 16.227-49.565 32.95-86.32 123.232-71.78 176.31 24.863 90.762 124.837 135.677 423.736 190.362 69.682 12.749 102.388 19.294 127.198 25.452 1.356.337 2.641.654 3.859.955h.002c12.442 3.07 17.975 4.435 22.113 7.615 3.313 2.545 5.732 6.254 10.087 12.933l.001.001c.533.817 1.095 1.678 1.691 2.587 10.664 16.265 10.921 16.518 9.551 9.34-2.267-11.879-.951-58.513 1.934-68.461 1.375-4.747 2.96-14.577 3.521-21.841l1.018-13.212-12.136 1.218c-26.205 2.631-151.5 1.61-178.249-1.454-60.582-6.939-134.85-21.391-159.258-30.99-54.199-21.315-135.527-73.733-157.558-101.551-7.237-9.137-5.347-9.093 7.813.18 122.528 86.324 237.444 114.488 468.306 114.773l32.531.041-1.166-17.621c-.181-2.745-.278-5.26-.366-7.566v-.002c-.27-7.054-.465-12.152-2.803-15.922-6.098-9.831-26.772-10.621-101.364-13.472-9.349-.357-19.545-.747-30.665-1.191-225.953-9.019-351.739-45.223-386.348-114.518-6.353-12.719-9.633-26.552-9.898-41.537-.456-25.782 8.016-54.972 25.133-87.756zm646.816 596.039c2.18-6.254 1.56-6.738-11.505-8.984-6.023-1.036-13.715-2.417-17.097-3.071-8.112-1.572-8.045-1.425 5.741 12.539 6.538 6.622 16.126 17.334 21.305 23.802 14.866 18.565 20.278 20.578 53.53 19.911 29.555-.592 29.575-.603 20.158-11.215l-6.222-7.011-9.76 3.79c-30.748 11.936-64.457-5.931-56.15-29.761z" fill="#A8291F" fill-opacity=".6"/></svg>