<svg width="1982" height="827" fill="none" xmlns="http://www.w3.org/2000/svg"><path fill-rule="evenodd" clip-rule="evenodd" d="M1499.6 2.294c-8.11 2.23-16.96 7.776-20.79 13.03l-3.62 4.964-11.18-3.933c-23.85-8.386-67.91 6.427-67.91 22.828 0 2.213-1.14 2.627-4.4 1.594-25.19-8.015-83.48 16.264-83.48 34.773 0 1.863-3.32 3.072-10.47 3.81-19.4 2.002-58.78 28.546-62.21 41.942-1.46 5.65-2.39 6.347-8.51 6.347-13.78 0-43.88 28.779-50.97 48.733-2.85 8.044-4.44 9.632-14.31 14.266-21.31 10.011-50.76 48.93-50.76 67.075 0 4.345-.93 6.634-2.7 6.634-7.69 0-52.24 40.714-60.81 55.576-1.83 3.17-3.03 3.258-13.67 1.012-26.59-5.607-45.387-2.568-52.646 8.513-5.362 8.183-4.413 1038.622.963 1046.172 7.741 10.87 42.853 12.53 77.763 3.68 37.37-9.48 57.51-34.11 42.49-51.98l-4.72-5.6 12.23-4.38c40-14.35 71.53-65.76 91.04-148.45 2.11-8.95 4.76-18.01 5.89-20.12 1.13-2.11 3.23-10.61 4.65-18.87 1.43-8.27 3.96-21.62 5.65-29.68 5.21-24.99 13.05-69.2 14.94-84.25 5.63-44.834 4.29-41.215 14.69-39.656 13.73 2.06 17.17.173 43.49-23.834 112.11-102.256 146.15-198.003 115.48-324.88-10.91-45.152-10.66-46.404 12.57-61.264 20.31-12.996 41.92-37.031 83.62-93.021 10.23-13.743 32.84-37.602 32.84-34.661 0 5.714-37.23 55.988-54.76 73.934-14.71 15.065-18.81 23.432-15.6 31.857 1.1 2.91 2.01 5.64 2.01 6.066 0 .427-4.83 6.193-10.74 12.813-12.35 13.845-14.38 23.969-6.75 33.675 14.4 18.307 41.84 4.267 94.47-48.346 6.36-6.362 10.89-9.878 10.06-7.812-.84 2.067-2.44 6.394-3.57 9.617-1.13 3.222-3.73 8.263-5.77 11.202-14.99 21.526-23.31 50.207-24.23 83.517-.34 12.353-1.17 36.683-1.86 54.066-2.58 65.591 31.21 133.517 72.03 144.788 3.57.986 10.83 5.123 16.12 9.191 37.86 29.089 96.61 32.022 128.24 6.403 12.36-10.003 12.58-10.055 19.72-4.611 14.84 11.326 78.12-21.736 89.53-46.781 1.12-2.459 9.79-11.134 19.27-19.282 26.11-22.445 50.6-58.939 50.65-75.473.01-5.011 2.2-9.794 8.03-17.555 24.33-32.376 47.3-99.209 44.63-129.841-.19-2.149 2.01-9.462 4.89-16.253 11.85-27.998 14.59-69.772 5.39-82.21-4.43-5.984-4.44-6.066-1.05-17.247 10.32-34.068 3-78.449-14.52-88.034-6.96-3.811-8.12-5.269-7.16-9.074 3.76-14.979-6.16-66.124-18.62-95.985-20.76-49.746-35.86-64.268-56.91-54.704-2.42 1.101-3.9-.666-6.64-7.953-29.83-79.431-108.8-158.011-138.94-138.26l-5.08 3.327-13.91-13.764c-34.19-33.806-104.87-54.742-129.15-38.257l-7.4 5.02-11.92-5.405c-12.27-5.568-52.43-8.628-65.61-5zm66.86 11.866l13.16 6.34 4.61-5.358c17.39-20.225 91.57 1.26 126.69 36.697l17.02 17.174 4.86-4.859c26.14-26.142 115.3 67.548 137.94 144.938l2.4 8.206 5.38-5.765c24.34-26.05 68.26 58.222 69.02 132.408l.22 21.969 4.88.045c19.13.172 28.57 51.773 15.87 86.767l-4.21 11.622 5.4 4.304c11.08 8.829 7.77 54.765-6.04 83.845-5.93 12.487-6.31 14.261-3.75 17.645 8.32 11.044-20.83 92.644-44.21 123.739-5.45 7.251-7.97 12.577-7.97 16.842 0 19.682-28.83 60.136-57.96 81.324-4.48 3.263-9.17 8.396-10.42 11.401-9.47 22.862-71.16 57.349-81.99 45.829-6.48-6.898-11.38-6.125-24.17 3.804-33.84 26.283-86 24.17-124.24-5.034-4.83-3.69-12.89-8.267-17.91-10.17-39.02-14.782-67.17-69.69-66.77-130.191.57-84.446 2.44-99.447 15.66-125.486 3.95-7.783 11.41-22.5 16.58-32.705 5.23-10.315 15.28-25.617 22.63-34.464 7.26-8.749 15.54-18.918 18.39-22.598 20.79-26.876 90.86-61.032 102.59-50.011 10.6 9.966-8.92 62.389-26.8 71.961-3.07 1.644-3.83 4.119-3.83 12.515 0 8.856-.87 11.401-5.67 16.537-5.31 5.682-5.71 7.267-6.35 24.789-.63 17.573-1 19.001-6.01 23.303-5.22 4.488-5.28 4.812-3.12 15.589 1.86 9.24 1.72 12.05-.89 17.514-2.94 6.168-2.89 6.697.88 10.113 6.64 6.005 10 14.688 10.22 26.341l.2 11.076 9.17 3.882c9.26 3.918 17.17 13.312 17.18 20.415.02 5.87 3.19 3.749 6.32-4.217 4.74-12.067 16.45-18.731 32.9-18.731h13.14l1.28-9.604c3.36-25.372 22.43-43.423 33.82-32.027 4.05 4.044 4.35.738 1.37-14.825-5.19-27.156-2.62-39.513 8.98-43.194 3.82-1.217 3.77-1.498-1.52-8.417-10.57-13.831-8.56-45.743 3.24-51.463l5.45-2.639-7.47-12.36c-9.78-16.181-13.34-32.213-8.87-40.007 3.12-5.433 3.04-5.785-3.42-14.647-11.86-16.266-17.41-29.308-16.06-37.722.97-6.058.6-7.488-1.93-7.488-8.88 0-37.45-34.903-34.61-42.291.75-1.959-1.22-2.627-7.75-2.627-24.22 0-44.39-9.031-44.39-19.875 0-3.359-.65-3.205-6.63 1.564l-6.63 5.289 6.47 6.097c11.9 11.231 10.7 26.732-3.64 46.967-3.39 4.787-13.13 18.606-21.65 30.712-89.19 126.795-164.99 196.993-180.81 167.433-4.67-8.732-2.32-15.458 9.81-28.096l11.72-12.212-3.07-6.159c-4.38-8.775-2.62-12.214 16.83-32.877 16.59-17.616 62.63-83.325 63.15-90.106.74-9.857-35.27 21.002-53.1 45.512-40.85 56.109-78.34 96.672-89.36 96.672-15.53 0-18.73 22.323-8.9 62.095 31.42 127.074-5.94 228.346-120.65 327.082-22.01 18.948-30.82 21.553-41.18 12.171-4.87-4.402-5.15-3.222-11.6 48.437-1.95 15.65-10.35 62.49-16.17 90.21-2.26 10.74-4.78 24.19-5.6 29.89-.82 5.69-2.33 11.4-3.37 12.69-1.03 1.29-3.26 8.51-4.96 16.05-19.24 85.7-50.13 134.95-94.3 150.35-11.64 4.06-19.4 10.73-12.48 10.73 10.63 0 14.72 17.87 6.54 28.6-17.1 22.41-100.423 36.15-110.061 18.13-1.19-2.22-1.879-193.19-1.879-520.285V334.487l4.517-4.518c7.746-7.747 48.753-7.255 56.693.68 3.13 3.131 5.18 2.478 5.18-1.65 0-10.166 44.23-53.387 60.39-59.025 4.98-1.732 5.63-2.998 6.41-12.329 1.99-24.059 38.77-65.548 58.11-65.548 3.02 0 4-1.293 4.06-5.37.28-18.571 33.7-53.219 51.32-53.219 8.55 0 8.65-.076 9.87-7.732 2.4-14.965 45.53-42.776 62.71-40.422 7.98 1.095 8.4.9 9.47-4.469 4.18-20.887 51.33-41.989 76.65-34.306 12.61 3.826 12.52 3.846 12.52-2.734 0-18.053 37.78-30.503 63.27-20.852 7.42 2.809 13.68 4.875 13.91 4.592.24-.284 1.78-3.16 3.42-6.393 8.42-16.578 55.83-20.553 83.9-7.032zm-62.47 15.18c-4.66 1.88-2.31 4.242 22.89 23.08 41.02 30.654 75.45 78.229 83.51 115.384 3.54 16.309 3.01 16.017 20.74 11.413 14.12-3.665 37.24-2.433 58.34 3.106 15.89 4.173 15.79 4.876 2.48-16.327-58.23-92.747-143.37-154.648-187.96-136.656zm98.17.57c-3.66 1.356-3.61 1.561.98 3.948 39.51 20.55 89.11 84.882 108.77 141.063l5.42 15.501 18.88 9.723c24.69 12.72 39.38 24.079 62.97 48.684 24.9 25.981 24.67 23.022-3.04-38.317-36.49-80.797-85.44-146.22-123.36-164.872-22.62-11.132-60.34-19.532-70.62-15.73zm-172.38 14.076c-10.63 5.158-10.45 6.343 1.96 12.618 46.2 23.371 106.75 96.414 112.13 135.276 1.7 12.3 1.74 12.343 9.46 9.117 3.83-1.6 17.25-5.664 29.83-9.033 12.57-3.368 23.14-6.386 23.48-6.704 3.29-3.101-41.05-69.546-55.58-83.275-44.49-42.034-99.73-68.452-121.28-58zm-78.7 29.654c-22.46 13.301-22.54 13.63-5.06 21.597 37.66 17.161 75.81 54.504 104.51 102.301 8.32 13.857 11.9 21.838 21.61 48.174 1.33 3.596 1.67 3.508 6.04-1.515 6.3-7.25 20.26-15.964 35.29-22.032 6.87-2.773 15.34-6.79 18.83-8.925l6.35-3.884-10.75-21.012c-39.48-77.201-135.24-139.322-176.82-114.704zm396.52 8.142c0 .552 3.74 5.605 8.31 11.23 34.6 42.595 71.97 130.229 72.65 170.369l.29 17.577 11.83 18.553c12.79 20.047 26.02 45.397 29.83 57.124 1.3 4.029 3.08 7.324 3.94 7.324 2.6 0 4.33-54.566 2.1-66.401-1.11-5.908-2.82-15.667-3.78-21.686-9.79-60.784-41.33-125.236-80.24-163.948-18.84-18.749-44.93-36.251-44.93-30.142zm-458.11 27.761c-31.53 18.075-34.17 23.668-14.95 31.709 49.5 20.715 116.51 99.345 131.22 153.972 2.82 10.462 2.46 10.556 18.95-4.998 7.69-7.245 19.72-17.569 26.74-22.939 14.95-11.433 15-11.65 6.35-27.391-40.42-73.537-136.97-148.314-168.31-130.353zm-75.98 59.079c-13.21 15.443-16.19 21.427-13.52 27.159 6.77 14.528 124.34 132.548 156.21 156.802l12 9.128 10.87-11.081c25.19-25.66 27.81-33.593 17.74-53.609-31.91-63.425-116.57-137.326-161.82-141.247l-9.76-.846-11.72 13.694zM1635 189.375c-9.8 4.828-11.18 10.872-9.73 42.399 1.51 32.96-.87 56.72-7.54 75.213-7.43 20.588-6.11 21.744 24.77 21.801 30.42.056 83.5-104.928 62.77-124.141-17.5-16.219-52.8-23.893-70.27-15.272zm-66.34 14.391c-6.4 3.195-13.69 8.601-16.21 12.015l-4.59 6.206 3.69 9.957c7.3 19.664 5.14 68.758-4.39 99.601-1.49 4.822 14.19 3.402 27.5-2.488 21.71-9.601 52.08-111.438 38.22-128.138-4.69-5.658-30.53-3.994-44.22 2.847zm-404.43 17.405c-37.23 29.428-36.6 56.615 2.36 102.461 28.78 33.863 132.3 98.916 157.41 98.916 12.56 0 42.61-58.905 32.55-63.811-23.64-11.535-90.85-63.402-134.79-104.033-50.44-46.647-44.97-43.46-57.53-33.533zm557.37 15.286c1.81 36.193-7.7 67.096-27.62 89.733-10.87 12.357-11.01 11.242 1.8 14.316 36.08 8.655 113.55-18.794 119.45-42.327 5.26-20.93-54.32-77.74-87.55-83.49l-7.23-1.252 1.15 23.02zm-200.52-9.333c-32.19 9.829-41.73 27.168-36.14 65.719 2.35 16.231 3.17 30.6 2.55 44.6-1.07 23.875-1.84 23.272 16.99 13.271 21.78-11.57 35.17-44.827 37.55-93.257 1.62-32.847-.88-36.464-20.95-30.333zm373.8 8.915c5.43 52.166 2.39 95.131-8.8 124.014-7.16 18.485-7.18 18.006 1.98 39.565 7.52 17.706 13.81 42.339 13.81 54.096 0 9.77 2.9 6.886 11.34-11.277 31.44-67.678 27.58-137.485-11.2-202.492l-8.15-13.671 1.02 9.765zm-437.46 41.68c-30.87 22.499-36.62 42.103-21.52 73.387 4.71 9.756 9.32 19.731 10.25 22.169 7.75 20.291 23.57-23.995 25.49-71.323 1.38-34.068.75-35.144-14.22-24.233zm-354.24 23.042c-39.57 32.646-44.06 50.912-25.03 101.775 25.91 69.268 147.87 139.759 198.31 114.622 19.11-9.523 45.43-60.282 45.43-87.605 0-.533-3.29-1.482-7.32-2.111-22.76-3.544-31.75-5.806-47.93-12.053-66.67-25.752-128.95-75.413-145.05-115.673-3.99-9.968-5.14-9.902-18.41 1.045zm706.91 20.15c-15.7 15.806-42.23 31.77-60.69 36.525-16.31 4.201-16.33 4.418-2.09 19.497 20.62 21.834 74.92 26.296 111.1 9.13l6.84-3.248-.99-12.251c-1.76-22.018-18.96-51.559-34.32-58.974l-7.16-3.453-12.69 12.774zm-408.34 24.983c-5.56 8.323-11.87 17.088-14.02 19.475l-3.93 4.339 13.16 14.702c14.9 16.646 14.59 16.521 23.68 9.588 8.1-6.182 8.24-8.496 2.06-35.027-7.65-32.824-7.74-32.884-20.95-13.077zm-398.81-.162c-.72.715-1.3 191.862-1.3 424.772v423.466h19.86c10.92 0 26.96-1.25 35.64-2.78 59.23-10.45 70.18-10.68 77.28-1.67 15.56 19.79-19.12 69.22-48.26 68.79l-7.39-.11 5.82-4.28c21.51-15.85 20.95-28.15-.78-17.06-37.93 19.35-44.85 65.6-10.65 71.27 45.19 7.48 91.35-53.08 110.08-144.43 1.32-6.44 3.62-14.09 5.11-16.99 1.49-2.9 2.71-7.4 2.71-10 0-2.6 2.19-13.39 4.88-23.98 2.68-10.58 4.88-21.56 4.88-24.39 0-2.83 2.1-15.6 4.68-28.36 2.57-12.78 5.25-28.06 5.94-33.96 3.38-28.858 20.49-129.446 22.33-131.344 1.22-1.254 5.09 11.967 16.58 56.64 2.82 10.97 3.43 10.788 23.77-7.029 107.91-94.524 142.8-190.995 112.14-310.113-7.93-30.833-9.53-47.375-5.27-54.591 7.45-12.618 14.98-20.407 23.72-24.553 13.82-6.552 33.66-27.164 62.67-65.104 56.54-73.954 95.16-101.889 132.19-95.632 11.14 1.883 5.6 29.524-10.45 52.133-19.46 27.424-67.25 85.646-89.66 109.246-34.09 35.891-35.64 40.389-5.23 15.116 64.63-53.705 170.7-195.024 155.63-207.34-10.13-8.275-79.38.221-124.88 15.321-63.89 21.204-156.76 95.044-198.53 157.84-19.86 29.855-47.77 34.733-96.34 16.838-95.28-35.106-179.04-120.036-189.48-192.137-1.97-13.605-28.64-24.631-37.69-15.579zm685.1 11.352c6.44 1.557 14.09 2.862 16.99 2.899 4.29.056 6.01 1.638 9.1 8.37 3.82 8.31 27.76 34.665 31.49 34.665 1.09 0 1.98 3.106 1.98 6.9 0 7.414 6.78 22.387 15.96 35.232 4.94 6.913 5.41 8.673 3.6 13.444-2.93 7.705.46 24.653 7.81 39.036 5.28 10.316 5.58 11.806 2.77 13.382-9.01 5.041-12.21 39.466-4.8 51.619l3.84 6.306-4.87 5.261c-7.31 7.885-8.6 24.592-3.5 45.112.99 3.982.39 4.398-6.44 4.437-13.79.081-23.33 12.492-28.88 37.552-1.03 4.65-2.14 5.371-8.25 5.371-10.88 0-21.45 3.9-29.7 10.966l-7.51 6.435-5.4-5.631c-2.96-3.095-7.75-6.605-10.64-7.8-4.54-1.882-5.54-3.892-7.44-15.044-1.34-7.77-4.15-15.602-7.12-19.771-3.78-5.318-4.46-7.736-2.97-10.531 1.13-2.107 1.38-8.564.61-15.387-1.19-10.529-.87-12.249 3.08-16.45 3.73-3.971 4.55-7.482 5.38-22.864.72-13.512 1.85-19.174 4.4-22.078 5.67-6.474 7.82-12.028 7.82-20.282 0-4.906 1.08-8.45 2.9-9.466 9.52-5.331 32.25-49.855 32.25-63.188 0-32.994-25.38-31.644-79.43 4.23-14.44 9.583-26.62 17.422-27.06 17.422-.83 0 30.75-44.791 48.98-69.463 15.31-20.731 19.2-29.263 19.29-42.344.08-12.536-.45-12.253 15.76-8.34zm-310.48 25.428c-.74 2.148-6.58 15.212-12.98 29.029-14.61 31.529-13.64 31.492 30.02-1.113 3.13-2.34 2.84-3.342-3.91-13.474-4-6.019-8.3-12.61-9.53-14.647-2.19-3.605-2.29-3.599-3.6.205zm574.48 6.347c-.45.805-2.81 7.617-5.24 15.136-6.67 20.678-19.07 43.211-30.69 55.759l-10.42 11.253 2.97 17.04c1.64 9.37 2.97 22.36 2.97 28.865v11.827l6.03-5.736c14.31-13.614 34.68-53.712 39.98-78.703 5.6-26.41 1.41-67.815-5.6-55.441zm-87.34 5.24c-14.34 14.038-55.37 25.834-79.51 22.858-14.03-1.729-14.31-1.291-6.99 11.278 27.27 46.823 109.53 72.293 115.08 35.63 4.68-31.013-16.17-81.917-28.58-69.766zm-272.57 20.958c-14.28 10.712-24.24 22.81-47.11 57.222-16.78 25.248-29.95 42.578-41.37 54.456-16.51 17.179-16.89 19.483-1.94 11.886 20.49-10.411 54.12-50.09 79.25-93.5 20.16-34.818 21.19-37.585 11.17-30.064zm80.29 50.324c-43.63 25.416-76.14 55.267-94.8 87.04-8.99 15.311-8.74 15.612 13.33 15.694 18.21.066 19.83.428 34.66 7.73 8.56 4.212 16.33 8.027 17.28 8.476 9.18 4.371-3.11-46.065-14.33-58.853-5.54-6.304-5.86-7.224-2.53-7.224 4.1 0 16.68 8.48 22.77 15.339 6.12 6.895 7.02 5.052 7.02-14.363 0-16.828 1.53-22.027 4.88-16.6 4.87 7.886 30.27-26.767 30.27-41.303 0-3.43-9.12-1.43-18.55 4.064zm118.91 12.262c7.69 38.468 74.03 72.913 103.39 53.682 10.53-6.9 12.74-34.89 3.76-47.51l-4.34-6.093-8.75 4.431c-17.84 9.034-56.21 7.347-79.21-3.482-17.32-8.156-16.26-8.084-14.85-1.028zm167.89 11.478c-1.21 1.518-4.02 6.377-6.25 10.8-6.35 12.618-22.74 29.33-32.38 33.007l-8.46 3.234.24 23.752c.13 13.066-.51 28.449-1.43 34.187-4.74 29.549 41.19-33.874 48.6-67.122 3.53-15.789 3.3-42.381-.32-37.858zm-165.4 46.049c-19.07 19.063 52.62 76.817 95.35 76.817 17.67 0 26.37-54.057 11.58-71.962-.31-.371-6.55 1.766-13.88 4.748-24.25 9.878-62.27 7.013-81.67-6.154-7.37-5.001-9.26-5.574-11.38-3.449zm-227.41 42.192c-11.49 12.234-21.9 44.515-21.9 67.921 0 16.354-1.3 16.229 17.76 1.718 19.81-15.08 33.76-21.488 49.24-22.613 24.22-1.762 24.8-1.984 23.52-9.06-5.03-27.894-53.1-54.49-68.62-37.966zm368.6 20.044c-6.95 7.019-15.91 14.268-19.91 16.112l-7.27 3.351-.05 17.092c-.06 18.878-6.08 40.115-16.86 59.406-10.36 18.549.73 13.89 16.22-6.82 11.54-15.411 46.45-101.902 41.14-101.902-.35 0-6.32 5.742-13.27 12.761zm-144.45 6.253c0 43.485 34.42 93.303 69.56 100.674l10.99 2.304 5.82-6.802c14.55-16.989 22.53-42.623 19.83-63.688l-1.73-13.419-18.55.65c-30.87 1.082-61.41-7.853-78.69-23.023l-7.23-6.349v9.653zm-562.4 15.13c0 .519-4.48 3.212-9.95 5.984-42.45 21.516-87.45 65.415-99.6 97.18-4.96 12.973-6.49 13.629-9.62 4.136-7.98-24.172 12.41-54.949 53.49-80.728 30.12-18.905 65.68-33.292 65.68-26.572zm355.41 31.898c-47.6 12.456-58.62 72.273-24.98 135.554 9.89 18.604 45.53 51.293 41.78 38.325-15.41-53.404 4.05-133.021 36.69-150.127 9.98-5.23 11-10.22 4.22-20.579-4.94-7.538-34.77-9.179-57.71-3.173zm176.4 9.636c-7.22 18.711-3.95 50.513 7.55 73.412 7.17 14.265 33.13 48.168 37.79 49.336 13.78 3.461 54.7-38.595 60.12-61.802 1.13-4.816.46-5.197-21.72-12.475-37.96-12.46-60.85-27.838-72.13-48.471-2.79-5.103-5.74-9.277-6.55-9.277-.82 0-3.1 4.174-5.06 9.277zm-432.22 37.866c0 2.299-2.49 8.232-5.53 13.183-6.18 10.051-14.4 29.835-17.94 43.17-9.09 34.29-25.81 45.994-73.83 51.687-14.25 1.69-26.43 4.33-32.5 7.041-30.26 13.534-70.82-11.96-67.05-42.151l.73-5.824 3.44 7.785c16.28 36.79 48.55 28.376 78.54-20.479 16.7-27.205 20.87-30.017 68.25-46.096 39.79-13.501 45.89-14.607 45.89-8.316zm316.73 8.579c-24.96 27.242-37.87 71.733-32.73 112.855 4.62 36.972 78.85 54.666 112.42 26.795l4.88-4.055-7.04-6.31c-36.2-32.445-54.09-71.553-51.76-113.091 1.25-22.131 1.16-22.894-3.1-25.876-7.22-5.055-10.43-3.682-22.67 9.682zm67.59-6.819c-4.75 4.755-5.71 7.056-4.81 11.557.78 3.916-.04 7.095-2.7 10.484-16.35 20.785 7.52 100.016 33.36 110.718 11.79 4.882 42.08-8.589 57.37-25.514 9.62-10.649 9.3-11.427-10.62-25.32-36.35-25.361-57.92-55.187-56.12-77.609 1.03-12.841-6.09-14.706-16.48-4.316zm163.11 24.904c-5.41 14.175-23.4 41.448-35.38 53.625-17.61 17.912-6.64 14.315 15.72-5.15 15-13.062 38.54-46.262 38.54-54.352 0-7.937-15.43-3.13-18.88 5.877zm-591.92 3.906c-9.48 3.904-11.97 5.749-10.93 8.101 10.36 23.56-12.11 42.762-40.69 34.761-4.6-1.289-5.71-.717-8.3 4.296-4.78 9.244-4.14 9.742 11.16 8.619 27.51-2.014 34.38-6.441 44.53-28.676 3.52-7.7 8.97-17.797 12.12-22.438 7.22-10.632 6.96-10.784-7.89-4.663zm-180.42 108.234c17.59 106.384 20.35 138.202 21.07 242.637.57 82.28.76 86.05 4.51 91.12 3.15 4.27 3.38 5.49 1.16 6.34-4.17 1.6-35.5-33.39-32.54-36.35 1.72-1.72 3-1.23 5.29 2.05 3.47 4.95 9.06 5.61 12.5 1.46 2.43-2.93-1.37-83.68-5.75-122.14-1.04-9.13-2.8-28.903-3.92-43.941-6.35-85.476-11.65-143.077-17.62-191.493-1.06-8.648-1.91-18.754-1.87-22.459.17-19.192 6.18 6.244 17.17 72.776zm692.6-16.737c-19.92 19.127-20.77 20.238-11.71 15.282 15.21-8.33 43.93-30.873 43.93-34.486 0-7.263-12.28.057-32.22 19.204zm-722.53 387.384c-8.59 1.96-25.88 7.6-38.42 12.53-12.53 4.93-25.06 8.96-27.82 8.96h-5.03v52.99l4.39-1.36c9.55-2.94 15.27-7.15 24.28-17.85 23.52-27.93 48.34-49.41 57.1-49.41 1.38 0 5.12-2.19 8.31-4.88l5.81-4.88-6.5.16c-3.57.09-13.53 1.77-22.12 3.74zm-68.83 128.24c-1.67.67-2.44 5.91-2.44 16.45v15.46h12.55c28.75 0 58.18-7.12 69.07-16.72l5.27-4.64-16.43-.06c-19.66-.08-39.03-3.2-50.61-8.16-8.44-3.61-12.79-4.2-17.41-2.33z" fill="#A8291F" fill-opacity=".6"/><path fill-rule="evenodd" clip-rule="evenodd" d="M430.036 2.551c-3.222.795-10.439 3.435-16.04 5.869-9.563 4.154-10.383 4.222-13.484 1.12-20.334-20.335-101.551 2.772-134.381 38.236-10.793 11.66-11.09 11.823-15.747 8.771-31.422-20.59-111.155 59.454-141.54 142.096-1.578 4.289-2.828 5.223-5.438 4.063-31.075-13.816-70.787 56.921-74.11 132.007l-1.082 24.461-7.6 3.246c-18.269 7.802-24.848 53.804-13.03 91.12 1.766 5.579 1.438 7.731-2.161 14.135-8.858 15.761-6.593 53.369 4.815 79.957 4.712 10.982 5.349 14.78 4.96 29.564-.613 23.356 25.613 92.241 45 118.196 4.482 6.002 7.622 12.405 7.661 15.624.23 19.711 50.357 88.456 64.501 88.456.962 0 3.44 3.297 5.504 7.324 14.041 27.382 75.347 60.417 89.704 48.336l.484-.408c2.994-2.523 4.637-3.908 6.353-4.006 2.086-.119 4.281 1.662 9.143 5.607l.646.523c35.927 29.133 95.401 26.707 133.896-5.458 4.609-3.85 9.657-7 11.219-7 12.334 0 44.35-30.632 57.182-54.706 13.349-25.049 18.176-50.577 16.899-89.347-.627-19.053-1.078-42.993-1-53.197.225-29.797-9.309-63.954-23.359-83.687-2.113-2.968-5.606-10.04-7.764-15.717l-3.92-10.32 18.919 18.338c52.243 50.639 76.817 60.693 89.305 36.543 4.474-8.656 2.103-15.937-9.733-29.891-8.645-10.19-9.934-12.702-8.346-16.262 4.21-9.437-.01-17.805-18.973-37.624-14.615-15.274-40.271-49.85-50.667-68.286-6.126-10.86 27.108 26.355 49.606 55.55 36.773 47.717 52.573 64.033 71.564 73.895 16.275 8.453 17.173 17.026 6.309 60.269-31.381 124.922 9.345 229.847 129.855 334.558l13.478 11.71 26.204-.285 2.395 19.672c1.318 10.817 3.993 28.897 5.948 40.177 1.953 11.28 4.591 26.66 5.86 34.18 1.269 7.52 3.636 20.26 5.259 28.32 1.623 8.05 4.122 21.38 5.552 29.62 1.429 8.23 3.845 17.46 5.368 20.5 1.523 3.05 3.923 11.25 5.335 18.23 16.177 80.08 64.838 154.29 101.18 154.29 1.197 0 .006 3.19-2.646 7.1-19.226 28.34 22.115 54.91 87.059 55.96 28.223.46 32.939-1.58 37.122-16.08 4.1-14.22 1.5-1033.265-2.66-1039.386-7.633-11.245-25.634-13.208-59.073-6.441-5.103 1.033-6.292.471-8.292-3.919-4.858-10.662-42.03-45.065-57.134-52.875-4.187-2.166-5.421-4.457-6.22-11.54-2.289-20.313-29.989-54.941-50.872-63.599-9.33-3.867-10.986-5.357-12.008-10.798-3.433-18.303-37.503-51.693-52.744-51.693-5.296 0-6.935-.807-6.943-3.418-.041-13.237-40.368-42.174-62.416-44.787-8.421-.996-10.28-2.041-13.57-7.619-13.088-22.184-56.354-38.753-81.223-31.103-3.089.95-4.399-.047-6.145-4.673-6.503-17.228-43.022-28.184-65.68-19.704l-10.481 3.922-8.125-7.73c-11.613-11.05-45.611-15.923-69.678-9.986zM762.998 744.4c-13.244-20.813-18.739-23.854-76.674-42.409-36.832-11.798-37.822-11.317-25.004 12.13 4.23 7.738 10.94 23.735 14.912 35.55 14.185 42.2 25.152 50.488 74.764 56.502 15.9 1.925 27.162 4.388 32.995 7.212 25.714 12.448 58.294-3.517 66.945-32.808 3.41-11.544.635-17.79-3.751-8.447-18.847 40.14-46.873 30.908-84.187-27.73zm-76.17-18.206c0 .766 1.65 3.725 3.667 6.576 2.017 2.851 7.417 12.909 11.998 22.352 11.664 24.033 16.329 27.009 46.291 29.517l14.113 1.182-2.022-5.316c-3.52-9.265-4.835-9.937-15.362-7.855-24.47 4.839-43.891-11.747-36.976-31.58 2.523-7.243 2.14-7.82-7.589-11.419-11.755-4.349-14.12-4.929-14.12-3.457zm83.938-105.247c51.634 15.334 100.407 58.737 103.053 91.709 1.07 13.347-3.625 27.498-6.45 19.438-13.998-39.924-52.05-79.206-105.359-108.765-11.281-6.255-7.628-7.249 8.756-2.382zm117.968 218.561c1.559-12.89 3.898-35.382 5.202-49.983 5.031-56.366-.851-38.024-14.774 46.077-16.802 101.494-20.84 148.061-21.569 248.698-.547 75.45-.898 83.03-4.009 86.47-2.726 3.01-2.919 4.25-.969 6.16 1.938 1.9 3.324 1.33 6.693-2.74 2.335-2.82 9.439-10.99 15.786-18.14 7.551-8.52 10.875-13.68 9.619-14.93-1.255-1.26-3.153-.56-5.495 2.03-4.134 4.57-6.793 4.92-11.316 1.51-3.722-2.81-.721-55.62 11.182-196.762 1.675-19.872 3.895-47.116 4.93-60.542 1.037-13.427 3.162-34.958 4.72-47.848zM487.7 10.958c5.07 2.563 9.924 6.838 11.643 10.254 1.621 3.222 3.116 6.175 3.325 6.562.207.389 6.546-1.715 14.086-4.674 26.089-10.237 70.538 6.246 63.85 23.676-1.318 3.435-1.181 3.432 11.978-.394 25.396-7.384 76.671 15.944 76.671 34.884 0 4.08.875 4.4 12.205 4.476 14.286.096 19.492 2.488 40.971 18.825 16.3 12.397 19.073 15.948 19.083 24.418.006 5.433.152 5.499 11.982 5.499h11.974l12.664 13.671c16.548 17.864 23.91 29.406 23.91 37.489 0 5.186.779 6.453 3.968 6.453 20.081 0 58.521 43.772 58.521 66.637 0 8.156.526 9.238 5.033 10.369 13.06 3.279 52.186 39.282 59.972 55.187 3.851 7.866 4.196 8.081 9.043 5.632 20.971-10.597 54.973-6.874 58.822 6.441 1.414 4.89 1.871 166.163 1.472 520.179l-.576 513.088-4.468 4.45c-13.679 13.62-84.909 1.33-104.4-18.01-12.576-12.48-9.846-31.25 4.545-31.25 7.133 0-.557-6.19-13.318-10.72-45.084-16.01-73.16-60.26-94.388-148.78-2.105-8.78-5.124-18.45-6.708-21.48-1.584-3.04-2.885-8.24-2.892-11.56-.006-3.32-1.689-12.6-3.742-20.62-2.05-8.02-4.31-18.93-5.019-24.24-.708-5.31-2.888-18.44-4.842-29.18-5.437-29.89-7.485-42.78-11.02-69.33-.246-1.85-.474-3.574-.685-5.179-1.891-14.341-2.522-19.131-4.209-19.537-.846-.204-1.957.696-3.626 2.047-.373.302-.772.625-1.203.964-11.318 8.904-17.557 6.486-44.422-17.215-110.448-97.436-147.381-200.924-115.585-323.882 10.797-41.76 8.807-51.996-12.195-62.712-13.445-6.86-36.672-30.808-62.324-64.258-23.195-30.248-63.186-74.293-71.622-78.885-17.778-9.673 28.099 62.234 61.095 95.762 14.939 15.179 17.491 20.676 13.771 29.658-2.699 6.519-2.605 6.691 12.566 22.844 17.679 18.823 3.828 38.024-19.364 26.842-32.07-15.466-84.954-71.493-138.109-146.317-13.023-18.331-28.344-39.563-34.048-47.18-19.843-26.504-22.09-48.578-5.833-57.281l4.93-2.636-6.803-4.617c-8.169-5.545-8.581-5.597-8.581-1.08 0 8.988-21.564 17.946-43.201 17.946-6.349 0-7.571.65-7.571 4.035 0 8.278-20.026 32.849-31.953 39.204-5.375 2.863-5.951 4.029-5.445 11.028.641 8.882-5.034 21.649-16.03 36.056-6.066 7.947-6.517 9.325-4.095 12.522 5.938 7.84.951 29.442-10.713 46.397-4.757 6.914-5.45 8.949-3.047 8.949 16.136 0 19.333 40.282 4.455 56.12-3.638 3.873-3.736 4.422-.795 4.422 12.004 0 16.446 20.979 10.131 47.832-3.109 13.224-2.964 13.851 2.519 10.915 14.892-7.972 29.323 5.697 33.002 31.26l1.494 10.391 9.987-.529c17.155-.91 30.328 6.748 36.98 21.497l3.552 7.878 2.579-8.847c2.707-9.279 8.964-15.251 20.018-19.104 5.577-1.945 5.947-2.693 5.988-12.136.05-11.753 5.6-25.365 11.669-28.613 3.892-2.084 3.984-2.541 1.143-5.681-3.42-3.779-4.292-22.602-1.27-27.377 1.256-1.982.123-4.316-3.934-8.107-6.009-5.613-7.165-12.024-6.054-33.575.351-6.832-.307-9.617-2.472-10.447-5.439-2.087-10.842-13.489-10.842-22.879 0-6.589-.92-9.47-3.457-10.827-4.557-2.439-21.426-29.209-27.106-43.02-10.584-25.733-.363-38.429 25.218-31.324 11.115 3.088 69.996 42.93 78.194 52.912 3.839 4.673 12.786 15.528 19.883 24.121 7.094 8.593 15.583 21.336 18.86 28.318 3.279 6.982 7.249 14.892 8.826 17.577 17.261 29.396 24.434 54.494 24.276 84.954-.055 10.742.376 34.746.962 53.344 2.004 63.725-25.991 120.936-66.621 136.146-5.341 1.998-13.047 6.439-17.124 9.868-35.166 29.572-89.818 32.013-124.976 5.582-13.26-9.968-16.892-10.548-23.656-3.783C213.957 860.489 142 819.929 142 802.39c0-1.479-5.108-6.621-11.353-11.427-30.135-23.192-56.943-61.779-56.982-82.023-.008-3.158-2.432-8.665-5.59-12.694-24.093-30.748-53.361-111.964-45.583-126.499 1.603-2.997.826-6.349-3.626-15.627-14-29.17-17.7-73.245-7.083-84.328l5.5-5.741-4.477-14.406C.83 411.113 10.1 365.912 29.98 365.912c4.573 0 4.618-.207 4.618-21.268 0-72.868 45.574-160.888 68.93-133.131l4.835 5.748 4.358-12.095c30.761-85.331 115.359-171.26 137.494-139.655l3.158 4.508L270.427 52.4c26.244-27.111 58.07-40.972 99.438-43.307l19.891-1.125 12.567 12.567 12.88-5.849c21.772-9.884 56.754-11.685 72.497-3.728zm-136.281 21c7.796-1.27 15.494-2.567 17.105-2.883 10.431-2.045 16.641 1.163 9.539 4.927-38.901 20.62-88.055 84.851-108.278 141.495l-5.577 15.624-17.071 8.354c-23.166 11.339-44.008 27.26-65.593 50.11-19.957 21.123-21.418 20.688-11.427-3.404C226.376 110.529 283.509 43.023 351.419 31.957zM289.651 166.75C322.262 113.185 397.21 39.597 429.06 29.873c7.503-2.29 44.676-2.091 49.076.264 3.497 1.873 1.007 4.273-24.051 23.18-43.75 33.01-83.609 91.405-83.609 122.49 0 7.742-1.646 8.023-19.775 3.379-13.941-3.572-35.156-2.637-56.026 2.47-16.095 3.942-16.239 3.514-5.024-14.905zm91.888 5.176C406.396 122.56 465.991 65.502 514.35 44.768c14.497-6.217 29.649-5.953 40.417.7l7.334 4.535-17.698 9.847c-45.205 25.157-107.462 104.084-107.522 136.314-.014 7.345-1.394 7.814-11.451 3.886-4.986-1.947-18.46-5.972-29.946-8.942l-20.883-5.404 6.938-13.778zm70.98 18.621C479.434 138.892 544.429 81.69 592.85 67.04c14.738-4.458 26.197-1.447 47.599 12.51 11.912 7.766 11.678 9.534-1.953 14.734-45.746 17.45-117.485 100.381-126.702 146.469-1.537 7.687-3.412 7.576-12.627-.751-7.743-6.994-23.224-15.468-39.255-21.483-16.997-6.377-17.552-8.476-7.393-27.971zm-345.444 96.385c17.429-94.719 60.433-169.899 115.044-201.117 14.551-8.317 15.297-6.529 3.363 8.076-10.414 12.745-48.431 80.909-55.315 99.182-11.402 30.263-14.839 44.596-16.155 67.377l-1.297 22.459-9.879 14.648c-12.302 18.238-22.865 37.239-27.733 49.882-.594 1.542-1.135 2.953-1.629 4.241-3.432 8.946-4.6 11.988-5.323 11.886-.373-.053-.628-.941-1.015-2.287-.108-.376-.226-.788-.36-1.227-2.332-7.646-2.119-59.98.299-73.12zm419.228-50.644c30.715-52.41 94.048-111.441 135.258-126.068 19.485-6.916 25.482-5.453 49.188 12.001l1.161.853c7.562 5.562 11.215 8.248 10.907 10.357-.287 1.97-4.031 3.436-11.272 6.272l-1.192.467c-51.71 20.29-119.059 98.795-134.75 157.072l-2.263 8.408-14.045-13.337c-7.725-7.335-20.438-18.501-28.251-24.813l-1.306-1.053c-6.999-5.644-10.583-8.534-11.258-11.992-.709-3.631 1.79-7.887 6.911-16.612l.912-1.555zm59.238 60.521c30.403-59.222 94.376-118.476 150.085-139.017 17.011-6.271 25.543-1.324 44.531 25.816l.278.397c1.723 2.46 2.934 4.188 3.192 6.049.608 4.399-4.114 9.535-20.002 26.818l-1.08 1.175c-76.842 83.605-138.15 142.005-149.072 142.005-3.837 0-25.612-25.11-31.457-36.275l-5.212-9.954 8.737-17.014zm-270.85 13.969c-53.065-63.604-57.015-108.927-10.584-121.404 44.426-11.939 52.69-4.109 52.729 49.953.03 41.877 1.805 54.986 10.036 74.119 5.37 12.487 4.497 13.194-18.134 14.681l-18.557 1.22-15.49-18.569zm76.465-1.369c-20.066-38.856-31.701-98.199-21.295-108.607 5.173-5.173 34.319-3.261 44.662 2.93 18.515 11.081 20.839 15.889 15.144 31.329-5.069 13.749-4.454 60.509 1.065 80.873.22.815.433 1.595.636 2.343 2.763 10.161 3.883 14.281 2.402 15.717-1.01.979-3.231.709-6.968.255l-1.265-.152c-19.834-2.35-24.621-5.787-34.381-24.688zm-220.127-24.025c16.805-33.115 53.649-65.386 80.333-70.364 11.754-2.193 11.877-2.111 10.27 6.859-6.552 36.552 5.421 81.884 27.962 105.884l9.112 9.701-9.516 2.468c-33.448 8.673-84.345-5.408-112.969-31.251l-11.67-10.539 6.478-12.758zm454.774 73.451c31.653-18.04 90.68-63.716 134.055-103.734 24.754-22.836 45.559-41.522 46.232-41.522 10.926 0 40.866 38.995 40.866 53.226 0 39.979-86.297 116.393-166.596 147.518-1.419.55-2.75 1.071-4.001 1.562-9.578 3.753-14.476 5.672-18.513 4.534-4.226-1.192-7.507-5.734-14.223-15.03-.839-1.162-1.731-2.397-2.686-3.71-2.106-2.896-4.051-5.56-5.843-8.013-14.325-19.62-18.804-25.754-17.272-29.262.697-1.595 2.638-2.647 5.461-4.178.776-.42 1.619-.877 2.52-1.391zm-147.408-7.456c-24.679-11.828-43.549-67.485-38.608-113.876l1.3-12.206h6.456c33.049 0 55.914 26.601 50.644 58.923-4.064 24.935-5.595 57.595-3.119 66.555 2.56 9.261 1.474 9.302-16.673.604zM71.269 446.96c-34.592-68.647-30.2-145.807 12.16-213.583 5.667-9.07 5.823-8.064 2.536 16.333-5.048 37.473-.584 85.362 10.327 110.77 6.873 16.013 6.696 18.618-2.775 40.654-5.103 11.874-9.126 25.316-11.102 37.106-1.705 10.167-3.359 19.364-3.679 20.438-.318 1.074-3.679-4.199-7.467-11.718zm455.257-75.678c-10.167-11.102-13.854-27.228-14.963-65.424l-.002-.095c-.693-23.836-.927-31.913 1.857-33.141 1.427-.629 3.648.543 7.006 2.314l.026.014c30.489 16.083 42.153 48.684 26.42 73.846-2.51 4.011-6.097 12.13-7.974 18.037-3.991 12.578-4.696 12.832-12.37 4.449zm153.467 54.178c57.914-6.496 151.978-70.462 178.02-121.057l7.344-14.269 11.692 9.084c34.306 26.65 39.458 35.743 36.12 63.764-6.748 56.65-40.744 100.701-103.675 134.341-79.947 42.733-124.478 29.924-143.522-41.284l-.035-.129c-4.098-15.328-5.956-22.275-3.29-25.817 2.209-2.935 7.525-3.531 17.247-4.622l.099-.011zm-556.644-39.483c-16.413-7.828 4.312-62.384 28.392-74.743l6.809-3.496 11.789 11.998c15.464 15.739 39.782 30.698 59.517 36.612 18.882 5.658 19.106 6.744 4.414 21.352-21.754 21.627-74.653 25.574-110.921 8.277zm432.558-9.832c3.466-18.237 8.395-38.612 10.151-41.969.982-1.881 2.415-3.396 3.183-3.371 1.15.037 25.339 34.831 27.407 39.425.346.763-5.397 7.657-12.759 15.319l-13.387 13.928-7.081-4.179c-8.797-5.191-9.72-7.546-7.514-19.153zm384.857-12.956c1.941-13.454 3.099-14.956 13.008-16.873 4.083-.791 11.597-1.539 16.698-1.662l9.276-.225v849.541H959.45c-11.162 0-26.761-1.24-34.661-2.75-58.391-11.18-73.187-10.84-79.233 1.84-10.654 22.34 23.982 67.01 50.384 64.98l7.717-.6-9.256-6.83c-17.397-12.85-15.929-23.19 2.08-14.65 49.126 23.32 43.358 84.96-6.563 70.13-43.717-12.98-73.066-58.9-90.975-142.35-1.619-7.54-4.107-15.91-5.528-18.59-1.422-2.69-3.181-10.37-3.91-17.08-.728-6.71-2.493-15.06-3.921-18.56-1.429-3.49-3.189-11.62-3.911-18.07-.721-6.44-3.066-21.38-5.208-33.2-6.782-37.4-7.327-40.66-9.622-57.61-2.238-16.53-14.767-92.7-16.626-101.068-1.48-6.668-4.212-5.263-5.704 2.929-2.714 14.909-15.46 57.125-17.249 57.125-3.031 0-39.184-32.3-55.143-49.266-79.318-84.325-103.642-172.666-76.233-276.881 11.623-44.2 6.017-69.989-16.957-77.998-15.195-5.298-34.5-25.879-77.973-83.122-41.706-54.918-84.552-83.154-118.513-78.102l-8.536 1.27 1.086 8.103c.6 4.456 2.023 8.415 3.166 8.796 1.144.381 2.079 2.396 2.079 4.478 0 15.083 53.522 87.62 102.826 139.355 36.14 37.922 34.699 39.996-4.528 6.517-27.357-23.35-51.435-49.899-79.553-87.718-84.442-113.583-85.544-116.87-38.272-114.294 112.947 6.156 209.86 63.347 292.088 172.369 26.788 35.517 49.366 39.497 104.53 18.421 91.664-35.023 173.421-118.973 183.433-188.355zm-348.978 33.519c3.577-5.66 7.065-11.827 7.75-13.708 1.41-3.865 5.275-4.652 5.275-1.074 0 1.291 5.395 14.056 11.992 28.369l1.009 2.19c6.824 14.799 10.131 21.971 8.567 23.267-1.47 1.219-7.245-2.756-18.45-10.468l-1.765-1.215c-1.697-1.167-3.267-2.239-4.717-3.23-10.56-7.215-14.755-10.08-15.063-13.316-.203-2.132 1.281-4.425 3.743-8.229.512-.792 1.067-1.65 1.659-2.586zM61.336 519.732C30.683 481.975 11.69 415.861 24.579 391.777c3.64-6.8 5.006-5.445 9.853 9.776 6.765 21.241 20.448 46.345 32.551 59.722 9.536 10.539 10.528 12.4 8.557 16.079-1.224 2.289-2.72 14.212-3.325 26.498-1.283 26.033-1.9 26.936-10.877 15.88zm27.693-52.436c-5.458-19.52 1.955-49.463 17.193-69.441 5.159-6.768 7.385-7.889 9.347-4.713 7.484 12.11 58.492 26.965 81.557 23.75.873-.122 1.694-.239 2.466-.348 5.9-.841 8.865-1.263 9.619-.166.762 1.109-.736 3.772-3.749 9.125-.39.693-.806 1.432-1.246 2.218-24.497 43.833-106.151 71.885-115.187 39.575zm343.536 25.479c-8.926-10.294-50.372-76.846-50.372-80.884 0-10.705 28.632 20.689 54.436 59.684 16.683 25.211 30.885 44.151 41.587 55.457 12.091 12.776 15.003 16.794 11.375 15.7-13.506-4.074-29.04-17.68-57.026-49.957zm-113.052 10.993c-4.935 4.467-22.551-20.432-28.099-39.719-1.566-5.439 3.9-6 12.933-1.328 16.661 8.616 62.839 40.989 67.574 47.371 2.928 3.947 10.046 12.829 15.816 19.739 13.349 15.979 19.483 25.269 21.631 32.761l1.705 5.947-12.039-.967c-15.88-1.275-31.475 2.154-46.808 10.292l-12.502 6.634-1.039-9.202c-2.193-19.422 3.287-36.661 15.804-49.729 5.692-5.941 6.329-7.323 3.374-7.323-4.968 0-18.625 8.255-24.058 14.542-6.596 7.63-8.243 4.7-8.243-14.658 0-18.287-.472-19.406-6.049-14.36zM94.95 482.018c18.587 9.614 57.219 7.501 83.177-4.549 28.85-13.393 4.554 29.846-26.546 47.239-28.61 16.001-67.002 13.854-71.968-4.027-6.374-22.955 2.492-45.305 15.337-38.663zm-44.365 99.58c-23.442-30.326-37.968-73.262-30.964-91.518 1.828-4.765 2.738-3.908 8.57 8.079 6.808 13.995 24.526 32.332 33.745 34.921l6.835 1.92.18 25.311c.097 13.921 1.148 29.242 2.331 34.046 3.777 15.335-1.492 12.087-20.697-12.759zm47.478-35.749c23.115 8.577 63.547 4.859 78.295-7.201 9.873-8.073 12.509-6.573 12.509 7.119v11.897l-12.205 12.126c-22.464 22.321-55.451 39.593-79.449 41.607l-13.318 1.117-4.317-11.493c-6.294-16.755-7.286-36.162-2.537-49.577l.15-.425c1.781-5.036 2.777-7.85 4.725-8.907 2.47-1.339 6.47.146 15.542 3.513l.605.224zm248.988 70.495c.019-14.122 20.781-35.857 38.929-40.751 25.343-6.836 30.281-3.797 43.297 26.629 5.938 13.881 11.146 56.636 6.899 56.636-.66 0-7.583-4.961-15.386-11.025-19.538-15.182-35.533-22.428-51.884-23.5-20.324-1.332-21.865-1.894-21.855-7.989zM77.439 689.721c-12.06-15.259-42.842-86.222-42.842-98.768 0-5.068.805-4.586 14.65 8.777 8.057 7.774 16.745 14.663 19.307 15.305 4.425 1.111 4.7 2.113 5.536 20.055.945 20.305 5.484 35.986 16.757 57.9 9.08 17.647 1.701 15.848-13.408-3.269zm33.852-67.009c32.032-.019 55.842-7.384 73.224-22.647 8.746-7.679 9.17-6.868 6.385 12.177-6.842 46.805-35.435 84.916-68.99 91.954l-10.791 2.264-5.552-6.564c-16.95-20.04-24.599-48.085-19.447-71.309l1.298-5.859 23.873-.016zm234.647 52.064c-12.842-7.788-11.729-21.435 2.083-25.554 22.094-6.588 66.247 1.91 82.058 15.794 18.974 16.66 12.529 93.219-10.787 128.138-11.277 16.891-42.594 43.37-38.101 32.216 17.378-43.145-3.228-131.169-35.253-150.594zm-207.587 34.056c36.447-11.391 64.084-30.257 72.868-49.74 9.701-21.518 19.756 20.2 12.082 50.135-6.343 24.744-37.054 72.766-47.482 74.252-13.834 1.969-55.391-41.331-58.59-61.046l-1.08-6.66 22.202-6.941zm113.257 11.388c.936-.578 1.701-6.999 1.701-14.268v-13.218l5.804.854c9.641 1.413 15.677 8.593 15.677 18.645 0 5.298 1.133 9.583 2.929 11.073 3.894 3.232 4.128 46.203.32 58.767-15.95 52.634-46.04 64.434-83.382 32.697-17.872-15.191-18.211-18.636-2.86-28.955 28.256-18.999 54.406-46.02 56.978-58.878.623-3.115 1.898-6.139 2.833-6.717zm59.656-5.074c-1.451-11.794-1.218-13.428 2.441-17.088 25.164-25.166 72.04 90.382 54.094 133.335-9.477 22.684-68.461 36.31-96.915 22.389-17.372-8.499-19.633-10.948-13.779-14.932 34.401-23.414 59.457-80.648 54.159-123.704zm-163.405 73.585c-16.283-5.012-60.537-56.93-60.537-71.02 0-9.517 16.076-.186 22.395 13.001 8.543 17.828 20.553 35.583 33.152 49.006 8.233 8.768 9.061 10.264 4.99 9.013zm39.85 40.729c-8.115-4.867-31.49-24.492-32.812-27.547-4.353-10.06 11.119-.99 31.067 18.212 20.41 19.645 20.596 20.643 1.745 9.335zm711.326 386.15c-6.878-3.28-13.609-7.29-14.956-8.92-5.853-7.05 27.384-.07 61.175 12.85 13.786 5.27 27.186 9.59 29.78 9.59h4.712v26.36c0 14.5-.469 26.37-1.041 26.37-5.882 0-21.256-11.57-30.999-23.32-17.393-20.98-34.73-36.27-48.671-42.93zm13.888 130.66c18.558-.04 39.966-3.82 48.634-8.6 3.021-1.66 8.132-2.82 11.354-2.57l5.858.46 1.145 32.83-22.053-1.27c-45.422-2.64-84.517-20.77-44.938-20.85zM348.996 435.68c-34.424-47.649-38.931-55.764-39.001-70.257-.029-5.74-.002-8.86-1.526-10.154-1.841-1.563-5.941-.463-15.128 1.899-5.37 1.381-12.533 2.594-15.919 2.697-5.024.153-6.536 1.278-8.221 6.113-2.449 7.027-26.63 34.513-31.809 36.157-2.757.875-3.611 3.086-3.611 9.345 0 7.806-10.488 29.449-18.67 38.529-2.181 2.421-2.295 4.253-.547 8.886 3.128 8.288.582 21.951-6.841 36.702l-6.289 12.497 5.153 5.769c8.526 9.542 9.77 35.279 2.414 49.879-2.561 5.08-2.387 5.896 2.497 11.7 5.185 6.164 5.236 6.504 4.048 27.252l-1.201 21.01h5.941c12.146 0 23.005 12.876 27.391 32.474 2.305 10.3 2.477 10.492 9.36 10.503 11.518.018 21.477 3.74 29.571 11.054l7.636 6.898 4.983-5.921c2.74-3.258 8.03-6.927 11.754-8.158 6.378-2.105 6.77-2.738 6.77-10.934 0-8.488 3.748-20.276 8.12-25.545 4.183-5.041 2.728-34.742-1.996-40.747-3.509-4.463-4.171-7.912-4.171-21.754 0-15.493-.355-16.894-6.085-24.024-4.28-5.328-6.376-10.359-7.071-16.975-.609-5.787-2.636-11.279-5.274-14.284-59.98-68.317-28.548-108.869 45.9-59.218 24.473 16.319 30.265 20.207 30.727 19.653.155-.186-.291-.873-.832-1.758-.941-1.539-13.574-19.22-28.073-39.288z" fill="#A8291F" fill-opacity=".6"/></svg>