<svg width="1150" height="1268" fill="none" xmlns="http://www.w3.org/2000/svg"><path d="M574.736 155.896c273.816-4.699 398.487-36.895 552.694-142.73 25.99-17.841 28.45-17.606 11.02 1.05-55.92 59.862-173.38 124.713-255.613 141.13-127.309 25.417-275.294 35.554-374.463 25.65l-15.449-1.543 1.537 15.375c.846 8.455 2.885 20.099 4.529 25.874 6.273 22.019 5.683 95.697-.85 106.761-.576.97-4.771-1.865-9.324-6.3-10.051-9.792-9.299-7.293 6.739 22.383 10.103 18.694 12.652 25.724 16.739 46.198 5.908 29.584 4.472 28.063 22.843 24.198 21.952-4.618 23.422-5.697 22.301-16.371-.515-4.882-1.443-22.579-2.064-39.325l-1.132-30.449 18.789 19.949c23.079 24.506 44.383 82.583 33.425 91.128-.415.321-11.618 5.901-24.897 12.396-46.256 22.626-69.565 50.072-72.922 85.867l-1.121 11.949-7.999-6.43c-11.041-8.874-12.903-22.429-6.187-45.056 5.731-19.313 6.6-18.571-15.948-13.626-42.307 9.279-51.526 15.472-65.074 43.707-8.335 17.371-9.918 19.479-12.815 17.075-2.822-2.342-3.945-1.825-7.693 3.544-22.813 32.683-66.81 51.639-136.712 58.901-100.793 10.468-120.795 44.339-107.201 181.527 3.54 35.725 4.329 73.4 1.47 70.242-1.854-2.048-132.562-325.228-132.562-327.763 0-.775 5.433 3.75 12.072 10.052 50 47.469 74.868 51.318 155.087 24.011 56.365-19.187 54.892-18.425 68.706-35.455 45.545-56.143 98.624-77.525 201.879-81.315 59.899-2.199 69.051-4.183 82.187-17.832 4.789-4.973 10.693-10.107 13.122-11.407 10.409-5.573 3.004-5.519-14.478.105-10.393 3.343-19.708 6.077-20.701 6.077-.993 0-5.01-11.993-8.923-26.652-5.683-21.281-8.553-28.37-14.245-35.174-8.902-10.642-11.829-17.53-14.781-34.785-1.282-7.498-2.809-15.793-3.392-18.431l-1.058-4.798 8.612 4.395c4.737 2.417 9.298 4.103 10.136 3.746.838-.355-3.919-29.468-10.573-64.694-13.806-73.095-16.03-94.508-12.448-119.865 5.486-38.827 8.669-42.27 46.183-49.967l18.479-3.79 11.124 5.638 11.125 5.638-11.344 1.344c-43.499 5.153-48.502 10.008-51.023 49.52l-1.262 19.76 83.456-1.432z" fill="#851B13"/><path d="M469.505 614.441c1.065-32.825.723-32.191 21.124-39.069l14.299-4.821 1.401 24.693c.77 13.58 3.286 32.668 5.589 42.416 12.324 52.179 8.903 57.836-64.726 107.089-88.538 59.224-124.479 130.247-167.867 331.721-23.81 110.55-36.18 146.18-59.581 171.6-17.945 19.49-10.33 18.29-121.593 19.09l-98.151.7v-19.87l44.614 1.21c24.54.66 64.325 3.26 88.412 5.77 36.79 3.84 44.236 4.12 46.535 1.73 6.368-6.61 53.17-65.8 52.532-66.44-.384-.39-11.902 1.65-25.593 4.53-40.514 8.52-69.086 12.01-98.231 11.99-28.851-.01-34.909-.83-70.478-9.49-12.125-2.96-25.06-5.38-28.744-5.38-9.423 0-10.645-3.71-1.77-5.38 8.074-1.51 12.956-.98 37.23 4.03 15.314 3.16 85.838 10.28 87.307 8.81.378-.38-7.285-12.78-17.033-27.54l-17.721-26.84 23.378-17.8c12.857-9.79 27.156-21.38 31.775-25.75 5.014-4.74 14.109-10.08 22.57-13.24l14.171-5.3v22.79c0 26.82-4.371 37.58-28.215 69.42-15.851 21.17-16.145 19.83 3.148 14.42 68.172-19.1 85.772-62.51 56.535-139.43l-2.211-5.82-23.842 1.37c-27.816 1.59-46.729 6.75-61.37 16.77-24.336 16.64-65.834 37.09-75.271 37.09-2.308 0 4.157-12.41 12.697-24.38 22.035-30.89 49.989-43.11 107.755-47.11 14.28-.99 26.214-2.08 26.517-2.42.304-.35-2.163-34.178-5.482-75.179-3.322-41.001-5.767-75.372-5.438-76.38.328-1.006 14.188 28.099 30.8 64.677 16.611 36.58 30.824 66.892 31.586 67.372 2.249 1.38 14.323-39.349 19.838-66.919 8.18-40.885 9.53-61.575 9.53-146.038 0-94.584.288-95.31 13.624-34.432 9.836 44.905 10.533 47.082 13.594 42.406 9.99-15.263 29.284-36.579 41.169-45.48 13.357-10.006 21.619-14.563 57.667-31.822 39.454-18.889 55.995-50.125 57.92-109.364z" fill="#851B13"/><path d="M0 1120.95l25.719-9.54c30.449-11.31 28.868-11.03 28.868-4.97 0 2.66 1.1 5.93 2.444 7.28 3.279 3.28-33.172 20.96-47.058 22.82L0 1137.88v-16.93z" fill="#851B13"/></svg>