<svg width="32" height="31" fill="none" xmlns="http://www.w3.org/2000/svg"><path fill-rule="evenodd" clip-rule="evenodd" d="M8.178.073C3.806.418 1.658 1.76.733 4.723c-1.016 3.25-.962 18.726.075 21.764C2.166 30.462 3.981 31 16.044 31 31.767 31 32 30.773 32 15.495 32 .184 31.786-.021 15.864.002 12.07.007 8.61.04 8.178.073zm1.046 10c.148.144.34.514.563 1.083 1.412 3.617 3.456 6.362 3.99 5.359.075-.14.093-.69.077-2.366l-.02-2.184-.196-.4a4.14 4.14 0 00-.431-.684c-.731-.88-.352-1.063 2.206-1.063h2.046l.21.175.21.176.037 2.739c.04 2.943.03 2.875.424 2.878.621.004 2.11-1.916 3.358-4.328.834-1.613 3.581-2.494 4.465-1.432.333.4-.59 2.3-2.38 4.905-1.165 1.697-1.196 1.459.398 3.056 3.207 3.213 3.336 4.133.583 4.133-1.908 0-1.735.078-3.276-1.489-2.798-2.844-3.51-2.944-3.572-.5-.05 1.95-.139 2.048-1.798 1.967-3.68-.18-6.8-2.722-9.218-7.512-2.028-4.018-1.935-4.774.583-4.748L9 9.854l.225.219z" fill="#fff"/></svg>