<svg width="4097" height="1403" fill="none" xmlns="http://www.w3.org/2000/svg"><path fill-rule="evenodd" clip-rule="evenodd" d="M2744.2 1.236c-.68.821-1.09 2.53-.91 3.798.41 2.882 5.5 3.274 7.21.555 2.3-3.641-3.54-7.676-6.3-4.353zm124.49.52c-1.38 1.529-1.51 2.338-.62 4 1.43 2.658 5.62 2.747 7.01.149 2.49-4.638-2.83-8.085-6.39-4.149zm-46.32-.255c-2.21.89-1.35 2.401 2.22 3.889 7.56 3.16 19.9.666 15.09-3.051-1.89-1.457-14.29-2.057-17.31-.838zm-62.72 7.088c-.93 9.946-1.22 10.779-4.26 12.266-7.15 3.5-39.09 1.855-119.77-6.166-33.87-3.368-45.09-3.142-53.35 1.074-8.53 4.352-53.05 8.515-129.15 12.078-69.09 3.235-134.43 9.541-156.28 15.082-21.97 5.574-69.3 9.094-146.72 10.914-58.23 1.369-80.89 3.181-89.83 7.183-9.56 4.282-39.21 7.165-95.67 9.303-57.8 2.19-80.99 3.688-93.86 6.064-46.38 8.566-157.5-13.786-163.03-32.794-3.08-10.616-5.13-11.026-11.56-2.319-7.3 9.872-9.72 10.347-17.67 3.466-18.49-16.004-83.41-15.402-93.75.87-6.24 9.819-12.61 10.804-50.13 7.752-9.9-.806-30.15-1.925-45-2.488-39.76-1.505-44.5-2.799-34.5-9.416 8.63-5.711 4.76-6.253-21.48-3.015-12.11 1.495-22.62 3.181-23.35 3.747-2.08 1.606-6.66 11.42-9.05 19.365-1.19 3.968-3.22 8.449-4.52 9.957l-2.36 2.742-4.02-1.817c-4.95-2.231-7.95-1.44-16.72 4.4-6.08 4.048-8.85 4.862-10.04 2.945-2.16-3.493 4.43-11.195 17.27-20.199 8.88-6.221 15.54-13.103 15.06-15.563-1.56-8.134-84.95-7.403-108.9.955-18.15 6.332-39.77-6.27-39.87-23.237-.05-7.923-3.96-12.853-7.73-9.732-4.28 3.557-5.39 12.676-2.81 23.333 3.11 12.891 1.7 15.295-7.48 12.718-9.66-2.712-12.56-2.342-12.18 1.551.47 4.626-4.08 6.416-16.26 6.403-15.09-.016-17.42-1.908-12.68-10.318 8.42-14.931 8.13-35.818-.51-36.658-3.29-.32-4.72.97-9.7 8.78-7.22 11.308-39.67 16.569-39.67 6.43 0-10.133-24.97-20.31-36.46-14.858-6.53 3.099-12.72 13.651-9.18 15.637 2 1.118 1.14 3.13-4.12 9.64-8.23 10.18-19.35 14.425-30.99 11.834-8.53-1.899-15.65-.874-22.09 3.181-9.79 6.16-33.66 10.676-72.162 13.654-67.311 5.206-95.473 11.116-103.295 21.678-4.562 6.159.301 7.236 16.886 3.738 17.765-3.746 32.164.772 19.837 6.225-20.19 8.931-101.511 16.28-96.859 8.753 1.252-2.025 6.192-3.072 18.752-3.974 14.443-1.036 18.297-2.221 15.109-4.645-3.923-2.984-38.013.948-71.43 8.238-58.321 12.724-168.453 33.002-225.5 41.521-36.661 5.474-53.423 9.621-68.649 16.985-29.936 14.476-48.996 6.978-64.854-25.513-20.387-41.772-56.27-56.72-74.019-30.834-25.857 37.712-59.31 57.254-76.192 44.508-8.992-6.79-11.786-6.304-11.786 2.049 0 8.495-4.643 14.054-12.738 15.249-8.77 1.295-14.755 6.738-18.041 16.404-3.558 10.466-12.155 18.193-25.147 22.604-11.774 3.997-16.413 8.15-14.045 12.575 1.854 3.464-1.4 5.931-9.136 6.926-9.542 1.228-10.139 1.606-9.403 5.962.999 5.911-7.124 9.633-39.241 17.983-28.82 7.493-29.366 8.364-6.276 10.003 19.156 1.36 19.583 2.073 4.267 7.126-16.921 5.581-16.174 6.807 4.911 8.057 37.642 2.23 44.863 2.825 46.794 3.858 8.081 4.325-4.108 8.64-91.854 32.519-82.13 22.35-78.54 25.27 14.728 11.977 27.694-3.947 26.181-3.808 26.181-2.401 0 3.61-24.372 11.427-40.832 13.096-8.678.879-12.074 1.656-14.5 3.317-3.177 2.174-3.235 2.431-1.983 8.781.662 3.352-1.112 5.741-4.26 5.741-5.886 0-11.017 5.442-7.706 8.174 2.796 2.307 25.402 1.514 42.78-1.501 43.55-7.556 55.501-7.47 55.501.398 0 6.423-11.01 9.461-39.5 10.899-34.115 1.723-52.026 5.891-49.836 11.596 1.56 4.067 12.412 6.853 55.086 14.141 5.534.945 3.802 1.654-15.014 6.152C-8.048 425.575-9.71 426.21 36.618 422.803c21.949-1.613 39.289.259 42.098 4.545 4.219 6.44-4.78 10.625-38.598 17.95-21.566 4.672-29.643 7.106-34.403 10.367-13.132 8.998-2.884 13.752 23.07 10.702 19.708-2.316 29.333-1.222 29.333 3.333 0 4.196-7.527 8.056-15.827 8.115-4.473.032-9.627 4.971-8.628 8.267 1.665 5.488 7.81 8.742 16.57 8.772 8.21.029 8.078 1.555-.468 5.45-21.814 9.94-24.985 21.981-7.817 29.683 8.03 3.603 7.365 4.284-5.49 5.621-23.492 2.444-34.841 14.874-15.742 17.243 8.627 1.07 10.203 2.532 8.45 7.841-2.76 8.361 1.807 9.462 40.452 9.753 37.834.284 35.733.195 35.3 1.494-.201.604-4.401 3.192-9.333 5.75-9.59 4.973-11.077 7.137-5.666 8.243 9.097 1.861 5.096 4.529-22.885 15.266-43.328 16.624-46.127 25.746-8.475 27.62 23.065 1.149 24.07 1.921 10.809 8.307-11.098 5.345-10.804 6.037 2.976 7.009 19.91 1.403 20.558 2.061 9.274 9.427-28.141 18.369-16.25 27.469 26.628 20.376 22.571-3.734 23.998-2.532 12.052 10.15-13.638 14.478-13.743 14.113 6.556 22.757 7.059 3.006 6.139 3.637-6.471 4.438-71.085 4.517-80.965 37.569-14.658 49.04 11.445 1.979 20.965 3.756 21.156 3.947.192.191-10.301 6.119-23.316 13.173-19.987 10.831-23.298 12.938-21.306 13.556 1.298.402 13.426 2.121 26.953 3.819 85.946 10.795 123.265 30.921 63.124 34.044-23.442 1.217-32.348 3.159-37.968 8.277-4.964 4.522-1.181 7.986 10.176 9.321 11.973 1.407 2.969 5.312-36.676 15.907-23.996 6.413-.17 13.973 53.75 17.055 59.772 3.417 98.041 60.15 85.611 126.919-7.695 41.33-6.701 47.48 8.503 52.54 3.865 1.28 7.877 3.5 10.049 5.55l3.615 3.41-.808 6.25c-3.722 28.78 11.887 42.42 31.643 27.66 5.855-4.38 7.381-3.7 4.447 1.97-2.863 5.54-1.776 10.23 3.519 15.19 4.38 4.1 5.416 9.81 3.515 19.39-2.464 12.41-1.424 17.54 3.558 17.54 4.998 0 12.791 9.77 17.824 22.35 3.292 8.23 9.98 17.01 14.143 18.56 9.055 3.37 9.111 3.54 8.317 26.13l-.651 18.55 2.642 3.14c2.026 2.41 3.979 3.41 8.358 4.3 13.693 2.78 20.215 8.61 20.215 18.06 0 18.29 34.922 59.63 55.396 65.57 9.003 2.61 15.779 22.97 11.099 33.35-6.516 14.45 12.236 17.28 29.864 4.51 10.95-7.93 14.633-3.51 17.033 20.48l1.151 11.5 16.229.27c8.925.16 16.228-.1 16.228-.55 0-.46-1.569-7.67-3.487-16.02-16.242-70.75-16.604-117.96-1.044-136.21 7.295-8.55 10.531-15.06 10.531-21.19 0-6.2-.846-6.05-4.419.79-5.168 9.89-10.372 9.2-16.07-2.12-7.46-14.83-1.591-41.15 9.812-44.02 9.408-2.36 19.758 15.64 12.677 22.05-9.885 8.94 31.832 61.82 46.591 59.05 17.206-3.23 17.734-38.22.699-46.28-10.66-5.05-12.532-14.33-5.84-28.94 5.849-12.78 14.175-8.84 20.342 9.61 6.066 18.15 13.712 19.17 30.593 4.1 15.095-13.48 21.911-15.04 65.697-15.04 40.873 0 44.869-1.05 43.476-11.38-.381-2.82-.944-7.03-1.253-9.35-1.458-11 11.951-16.22 14.238-5.55 1.635 7.63 4.655 9.94 14.182 10.86 13.125 1.27 27.09-4.91 31.703-14.03 4.537-8.96 8.763-9.35 22.124-2 13.122 7.21 14.274 11.12 6.448 21.85-11.152 15.3-10.614 15.33 100 6.07 155.042-12.98 392.742-36.07 504.002-48.95 58.22-6.75 117.95-13.47 156-17.56 15.12-1.62 35.15-3.83 44.5-4.92 31.79-3.67 93.62-9.18 192-17.09 86.53-6.96 167.22-13.87 216.5-18.54 50.68-4.81 66.66-6.15 88-7.35 119.61-6.73 444.39-10.96 619-8.05 84.17 1.39 111.24 2.66 170.5 7.98 15.85 1.42 48.55 2.67 117 4.48 52.25 1.38 110.52 2.97 129.5 3.52 18.97.55 63.07 1.68 98 2.51 34.92.83 90.5 2.16 123.5 2.96 99.79 2.41 125.74 2.67 155.5 1.57 35.02-1.3 37.78-1.75 30.73-5.03-3.67-1.71-4.74-4.55-2.03-5.41 15.49-4.91 60.67-5.55 73.49-1.02 6.98 2.46 9.85 6.43 4.65 6.43-6.05 0-11.97 6.02-9.84 10.01 1.92 3.58 7.26 4.1 20.42 2 6.64-1.06 16.8-2.43 22.58-3.04 16.54-1.75 16.03-2.41-7.89-10.12-8.83-2.85-12.62-4.49-11.42-4.92 4.11-1.5 29.94-2.27 82.81-2.46 66.17-.24 73.07-1.01 71.74-8-1.1-5.75 7.68-10.95 32.26-19.08 10.99-3.64 14.59-5.16 11.5-4.86-30.28 2.92-57.05 2.56-60.43-.81-3.13-3.13-39.05-4.53-147.07-5.71-47.85-.53-100.95-1.42-118-1.98-177.12-5.86-336.8-20.18-327.56-29.37 1.76-1.752 28.98-1.21 61.06 1.22 48.19 3.66 82.6 5.37 167.5 8.33 126.84 4.43 334.75.34 395.5-7.79 27.78-3.714 34.15-6.6 29-13.148-4.41-5.602-1.84-9.401 7.89-11.67 7.02-1.639 8.19-2.314 6.18-3.558-1.77-1.093-14.89-3.045-20.47-3.045-7.11 0-13.71-1.186-13.31-2.391 1.63-4.972 85.91-13.514 163.71-16.591 25.38-1.004 43.1-2.93 47.22-5.135l2.16-1.157-2.17-1.757c-4.28-3.464-20.93-5.258-69.71-7.509-52.73-2.434-66.58-5.586-61.13-13.91 6.53-9.957 26.43-13.015 83.63-12.848 23.92.07 42.82-.051 42-.269-.83-.218-12.75-1.767-26.5-3.442-108.95-13.274-182.67-26.885-190.09-35.095-4-4.422-16.32-8.98-30.79-11.389-11.61-1.933 4.06-4.085 40.1-5.508 45.37-1.792 54.78-3.954 42.73-9.812-9.8-4.757 3.55-5.516 39.05-2.22 103.96 9.653 140.5 10.702 140.5 4.037 0-5.616-6.92-7.816-28.5-9.063-47.97-2.771-80-8.541-80-14.41 0-5.789 21.91-7.34 72.06-5.099 26.38 1.179 38.22-.685 46.44-7.308 4.58-3.697 1.81-4.396-20.73-5.229-45.33-1.676-50.49-9.829-6.27-9.905 27.3-.047 37.42-2.035 40.48-7.957 2.76-5.338 2.17-33.377-.75-35.286-4.63-3.038-16.88-6.675-33.31-9.894l-16.92-3.317 13-.757c26.43-1.54 31.34-3.042 25.4-7.779-8.58-6.846-8.43-6.66-6.99-8.396.74-.893 3.88-2.344 6.97-3.225 3.09-.88 6.03-1.99 6.54-2.467 3.7-3.449-33.93-9.898-116.67-20-19.12-2.333-34.52-4.477-34.23-4.765.73-.733 20.16-4.624 37.98-7.608 22.34-3.742 41.89-5.5 72.5-6.522 54.48-1.82 50.88-12.993-5-15.513-21.57-.972-22.38-1.478-14.01-8.699 12.57-10.845 26.48-16.14 42.68-16.245 11.59-.076 15.17 1.991 16.79 9.69 1.19 5.648 11.54 2.034 11.54-4.03 0-17.427-72.59-36.02-129.7-33.22-11.47.562-14.25-.434-10.25-3.663 10.13-8.169 10.76-9.83 4.97-13.124-8.58-4.883 5.63-5.226 68.48-1.655 83.7 4.756 77.7-1.942-18.49-20.637-40.87-7.943-48.32-9.671-36.51-8.462 113.73 11.632 139.93 3.328 59.5-18.854-6.88-1.896-20.15-5.551-29.5-8.122-31.12-8.555-46.36-15.463-34.19-15.49 14.38-.032 43.16-13.307 54.02-24.916 7.22-7.715 6.13-9.186-8-10.843-9.38-1.101-34.52-6.531-78.24-16.9-54.83-13.003-61.44-20.799-20.59-24.288 23.42-2.001 39.79-1.064 41.72 2.388 4.78 8.536 46.11 12.906 44.3 4.685-.75-3.434 1.31-5.936 5.6-6.793 6.16-1.232.71-4.523-18.62-11.25-23.24-8.086-28.22-13.076-13.07-13.076 21.31 0-5.81-9.695-55.93-19.996-42.35-8.704-74.55-18.7-87.7-27.225-13.82-8.954-38.46-15.544-83.3-22.273-42.95-6.446-73.85-17.035-68.14-23.351 4.05-4.48 20.07-5.008 76.25-2.512 15.91.707 19.08-.368 9.12-3.099-3.43-.94-13.43-4.558-22.23-8.041-25.73-10.183-72.44-18.782-168.11-30.948-23.41-2.977-37.06-8.305-48.16-18.807-8.38-7.929-12.89-10.206-22.98-11.59-7.69-1.054-11.92-3.103-16.69-8.085-4.74-4.959-12.16-7.126-28.06-8.191-40.6-2.721-38.34-10.229 9.75-32.458 19.61-9.067 19.09-8.259 8-12.415-26.36-9.875-32.18-14.638-30.73-25.172.79-5.709-.47-7.749-6.77-10.961-16.52-8.433-136.11-26.098-212.25-31.352-57.21-3.947-66.68-4.69-77.49-6.081-29.75-3.826-39.7-6.648-40.68-11.531-.82-4.078-2.69-3.633-6.39 1.515-6.05 8.423-13.07 7.621-24.58-2.805-10.6-9.597 2.94-11.465 84.14-11.605 46.59-.081 77.42-2.062 68.18-4.38-18.6-4.67-191.06-17.22-304.18-22.138-83.14-3.614-100.27-10.579-47.92-19.485 59.28-10.085 50.27-17.572-24.08-20.014-55.28-1.816-67.1-4.475-83.96-18.904-8.15-6.972-9.22-6.794-10.01 1.654zm-1694.49 9.702c-2.66 3.201 1.24 8.118 4.71 5.936 2.22-1.399 2.76-4.063 1.21-5.936a3.837 3.837 0 00-5.92 0zm439.99.488c-1.67 3.121.36 6.266 3.78 5.87 2.35-.27 2.69-.757 2.69-3.81 0-4.308-4.5-5.74-6.47-2.06zm-479.59 7.501c-1.55 1.152-1.72 1.805-.84 3.25 2.53 4.147 10.45 3.932 12.09-.327 1.42-3.701-7.19-5.938-11.25-2.923zm-76.075 9.046c-.336.873.189 2.47 1.167 3.55 3.368 3.722 12.136 1.705 11.315-2.603-.503-2.64-11.512-3.475-12.482-.947zm-40.888 7.905c-2.274 1.662-.794 4.158 3.414 5.757 4.721 1.795 10.702-2.522 8.002-5.776-1.483-1.786-8.964-1.774-11.416.019zm23.561.06c-2.657 3.201 1.245 8.118 4.71 5.936 2.222-1.399 2.765-4.063 1.21-5.936a3.837 3.837 0 00-5.92 0zm237.992 2.6c1.59 2.975 1.11 7.509-1 9.414-3.78 3.427-5.71.571-5.05-7.466.41-4.929 3.86-6.039 6.05-1.948zM876.368 50.87c-4.516 1.815-.839 6.969 4.973 6.969 2.725 0 6.777-3.004 6.777-5.025 0-2.418-7.489-3.657-11.75-1.944zm-36.211 9.897c-1.273 2.377-.435 4.812 1.913 5.557 3.88 1.231 6.839-2.32 4.868-5.843-1.264-2.257-5.516-2.078-6.781.286zm814.873-.295c6.69 1.337-.33 5.254-9.41 5.254-8.37 0-16.37-4.016-10.31-5.174 3.74-.714 16.3-.765 19.72-.08zm1593.83 24.28c-5.05 1.041-5.39 1.614-2.24 3.682 6.05 3.961 21.61 2.045 17.36-2.137-1.72-1.699-10.19-2.564-15.12-1.546zm27.51-.269c-.69.287-1.25 1.555-1.25 2.817 0 4.449 5.04 6.012 7.39 2.29 2.05-3.272-2.16-6.775-6.14-5.107zm193.95 75.556c-3.24 3.234.5 10.509 7.02 13.663 5.18 2.512 8.06 2.703 9.77.65 4.69-5.658-11.58-19.528-16.79-14.313zm104.92 49.622c-3.56 2.466 2.6 4.774 24.38 9.123 31.03 6.198 42.69 6.079 32.75-.335-9.1-5.868-51.85-12.444-57.13-8.788zm100.08 17.378c-3.55 3.552.57 9.05 4.64 6.196 2.56-1.788 2.74-3.667.59-5.825-1.88-1.879-3.6-2.001-5.23-.371zm37.05 1.462c-4.24 1.711 2.57 4.338 11.25 4.338 8.96 0 15.5-2.632 10.92-4.393-1.88-.719-20.37-.673-22.17.055zm-160.45 23.077c-1.97.451-3.12 3.275-2.25 5.543 1.49 3.883 7.45 2.458 7.45-1.782 0-2.617-2.45-4.39-5.2-3.761zm123.95 25.341c-2.35 1.366-2.24 5.589.18 6.881 4.19 2.244 7.72-2.481 4.5-6.033-1.99-2.196-2.28-2.249-4.68-.848zM148.547 311.41c1.859 1.86 1.875 1.993.536 4.495-2.408 4.499-9.25 1.05-7.133-3.596 1.286-2.822 4.267-3.228 6.597-.899zm3677.823 16.091c-1.92.774-1.49 4.143.68 5.303 4.3 2.298 11.07.528 11.07-2.893 0-2.73-7.27-4.22-11.75-2.41zm77.44 17.995c-3.18.901-1.2 2.803 4.38 4.205 7.78 1.954 21.42-.693 18.53-3.595-.87-.874-20.16-1.387-22.91-.61zm147.56 149.374c-4.52 1.815-.84 6.969 4.97 6.969 3.2 0 6.99-3.286 6.19-5.365-.88-2.304-7.17-3.207-11.16-1.604zM72.35 546.692c1.963 1.996-2.52 5.147-7.323 5.147-7.828 0-15.56-5.078-9.66-6.344 4.272-.916 15.696-.111 16.983 1.197zm3864.02 8.789c4.92.813 4.74 2.011-.5 3.432-7.7 2.085-35.75.428-35.75-2.111 0-1.712 27.76-2.724 36.25-1.321zm-299.85 103.858c-.01 8.148-.5 15.045-1.15 16.5-.88 1.958-1.13-1.617-1.13-16.5 0-15.138.24-18.492 1.16-16.5.7 1.524 1.14 7.965 1.12 16.5zM92.722 696.994c-2.501 3.57.683 7.832 4.375 5.856 2.236-1.197 2.688-4.944.82-6.811-1.78-1.78-3.501-1.464-5.195.955zM4075.62 847.202c-4.28 3.254 2.7 8.037 8.33 5.706 5.81-2.408 4.76-6.035-1.96-6.756-2.98-.32-5.01.015-6.37 1.05zm-171.58 76.128c2.27 2.275-1.2 5.509-5.92 5.509-3.94 0-7.77-2.953-6.5-5.007 1.93-3.118 9.5-3.424 12.42-.502zm-538.53 25.759c2.3 3.678-3.56 7.664-6.34 4.311-.76-.912-1.01-2.58-.63-4.111.76-3.04 5.12-3.164 6.97-.2zm714.19-1.382c-4.33.938-4.18 2.676.4 4.507 6.76 2.705 16.02 1.327 16.02-2.385 0-2.203-10.05-3.502-16.42-2.122zm-176.33 28.239c-4.81 4.974 5.52 11.893 17.75 11.893 7.05 0 9.1-1.671 6.65-5.411-3.04-4.631-21.46-9.524-24.4-6.482zm-654.82 5.464c2.88 2.881 1.17 6.429-3.1 6.429-3.2 0-4.65-3.102-2.73-5.845 1.79-2.553 3.67-2.741 5.83-.584zm581.52-.126c2.03 2.447.89 6.015-2.04 6.356-3.62.42-5.55-2.104-4.08-5.331 1.25-2.743 4.28-3.25 6.12-1.025zm-1060.45 48.606c66.05 3.5 60.83 5.8-15 6.61-59.73.64-81.5-.36-81.5-3.73 0-4.26 45-5.6 96.5-2.88zm-228.44.98c2.56 1.37 2.52 5.59-.06 6.97-4.46 2.38-8.62-4.38-4.25-6.92 2.19-1.28 2.01-1.28 4.31-.05zm56.37-.06c3.16 1.2 3.3 3.41.35 5.47-4.07 2.85-11.78.86-11.78-3.03 0-2.81 6.69-4.24 11.43-2.44zm292.63.06c2.56 1.37 2.52 5.59-.06 6.97-4.39 2.35-7.99-2.87-4.43-6.43 1.86-1.86 1.99-1.87 4.49-.54zm-316.5 1.41c4.42 3.28-4.52 6.72-12.13 4.68-6.42-1.73-8.59-3.72-5.43-4.99 3.89-1.57 15.3-1.37 17.56.31zm65.19-.81c3.76 1.01 2.81 4.12-1.68 5.47-5.54 1.66-16.07-1.06-16.07-4.15 0-1.66 12.89-2.62 17.75-1.32zm226.42 1.14c3.22 3.22-5.67 6.25-12.74 4.35-10.86-2.93-8.39-6.29 4.29-5.84 4.07.14 7.75.79 8.45 1.49zm1010.98 7.11c-4.55 2.88 3.16 7.87 8.62 5.58 3.49-1.47 4.42-4.79 1.65-5.85-2.31-.89-8.71-.72-10.27.27zm-626.58 6.68c4.85 1.33 9.44 4.76 8.13 6.07-3.73 3.73-44.76 3-45.5-.81-1.19-6.2 22.06-9.48 37.37-5.26zm-150.58 1.93c.72.87.96 2.55.58 4.06-.89 3.55-6.89 3.26-7.4-.36-.62-4.4 4.11-6.97 6.82-3.7zm73.01.5c2.72 1.73-.17 4.47-5.08 4.83-8.21.59-16.42-2.45-12.92-4.79 1.91-1.27 16.01-1.31 18-.04zm-1269.18 9.81c.4 2.76-1.4 5.2-3.82 5.2-2.64 0-4.32-2.6-3.58-5.55.89-3.55 6.89-3.26 7.4.35zm24.68.59c0 5.21-6.35 6.24-7.34 1.19-.65-3.3.67-4.72 4.08-4.39 2.85.27 3.26.67 3.26 3.2zm1570.89 6.86c1.51 2.4-.33 5.16-3.71 5.56-2.1.25-2.74-.19-3.26-2.26-1.22-4.89 4.33-7.52 6.97-3.3zm48.41-.69c8.81 2.68-7.28 9.44-22.47 9.44-13.69 0-18.5-6.49-7.33-9.89 3.67-1.11 25.75-.78 29.8.45zm-1676.38.31c8.6 1.86.08 5.62-11.13 4.9-7.36-.47-12.85-2.96-9.22-4.18 4.53-1.52 14.97-1.89 20.35-.72zm-48 .74c4.87 1.87-2.1 4.39-12.13 4.39-10.66 0-17.94-2.02-15.63-4.33.84-.84 25.6-.89 27.76-.06zm-62.74 1.89c9.45 2.81 12.89 7.87 8.21 12.09-6.42 5.8-46.89-.8-46.89-7.64 0-5.24 25.97-8.23 38.68-4.45zm-91.07 5.18c6.58 2.52-12.56 13.12-19.38 10.74-5.61-1.96-3.55-9.33 3.19-11.4 2.98-.91 13.17-.5 16.19.66zm30.82-.71c2.98 1.13 3.24 2.63.91 5.2-3.09 3.41-11.34 1.33-11.34-2.86 0-2.66 6.02-4.01 10.43-2.34zm-1401.888 4.48c2.247 5.38-1.508 12.48-5.044 9.55-1.521-1.26-2.074-8.34-.893-11.42 1.099-2.86 4.393-1.82 5.937 1.87zm1338.018 4.77c5.33 5.34-47.31 12.56-61.88 8.49-6.29-1.75-1.25-6.04 9.82-8.36 6.45-1.36 50.72-1.46 52.06-.13zm1974.69-.56c-1.92.77-1.49 4.14.68 5.3 4.3 2.3 11.07.53 11.07-2.89 0-2.73-7.27-4.22-11.75-2.41zm153.33.15c-6.48 1.53-.22 6.19 8.33 6.19 4.43 0 9.27-3.16 7.54-4.92-1.31-1.34-11.98-2.19-15.87-1.27zm27.5.59c-2.69 3.24 1.17 8.19 4.67 5.98 2.89-1.82 2.31-6.82-.84-7.18-1.42-.17-3.14.37-3.83 1.2zm-71.58.25c-1.1.24-3.13.67-4.5.97l-2.5.55 2.75 1.45c6.25 3.28 29.62 2.48 28.46-.98-.68-2.06-17.39-3.43-24.21-1.99zm-2492 43.28c0 5.2-8.82 5.79-11.9.79-1.6-2.58.82-3.8 6.9-3.48 4.55.24 5 .47 5 2.69zm-681.436 39.1c2.162 1.16 2.571 4.93.734 6.77-1.63 1.63-3.35 1.51-5.229-.37-3.587-3.59.056-8.77 4.495-6.4zm84.487 18.03c3.31 3.65-1.837 8.8-5.494 5.49-2.466-2.23-2.599-3.87-.488-5.98 2.112-2.11 3.751-1.98 5.982.49zm151.047-.65c-12.326 4.61-.78 14.31 11.954 10.04 10.115-3.39 14.71-8.31 9.196-9.85-5.43-1.52-17.316-1.62-21.15-.19zm300.062.41a3.726 3.726 0 005.39 5.13c1.89-1.89 1.95-2.31.65-4.27-1.91-2.89-3.94-3.18-6.04-.86zm-349.091 16.75c-1.859 1.86-1.875 1.99-.536 4.5 1.84 3.43 7.965 1.56 7.965-2.43 0-1.05-3.207-3.64-4.5-3.64-.746 0-2.064.71-2.929 1.57zm224.515-.17c-.682.82-1.092 2.53-.913 3.79.409 2.89 5.498 3.28 7.213.56 2.297-3.64-3.542-7.68-6.3-4.35zm-375.577 34.61c.93 1.51-.367 4.72-2.188 5.42-4.487 1.72-7.625-3.13-4.224-6.53 1.962-1.96 4.818-1.46 6.412 1.11zm92.573 133.39c-2.776 3.34 2.172 8.29 5.517 5.52.826-.69 1.367-2.41 1.202-3.83-.355-3.06-4.682-4.14-6.719-1.69zm-132.511 16.17c-3.03 3.03-.799 6.88 3.624 6.26 2.649-.38 3.67-4.08 1.759-6.39-1.557-1.87-3.424-1.83-5.383.13z" fill="#000"/></svg>