<svg width="40" height="31" fill="none" xmlns="http://www.w3.org/2000/svg"><path fill-rule="evenodd" clip-rule="evenodd" d="M3.47.104C2.913.256 2.42.462 2.445.53c.047.132 17.487 12.203 17.592 12.176.059-.014 4.03-2.769 8.825-6.122C38.602-.225 37.8.439 36.646.142 36.017-.02 4.056-.058 3.47.104zm32.277 7.103c-2.32 1.621-6.784 4.741-9.918 6.933-3.134 2.191-5.757 3.984-5.829 3.983-.097 0-12.147-8.322-19.488-13.457L.033 4.33.007 15.688c-.02 8.31 0 11.485.074 11.833.332 1.584 1.634 2.907 3.276 3.333.756.196 32.536.194 33.292-.002 1.643-.425 2.937-1.743 3.27-3.33.074-.349.093-3.532.074-11.87l-.026-11.394-4.22 2.949z" fill="#fff"/></svg>