<svg width="31" height="31" fill="none" xmlns="http://www.w3.org/2000/svg"><path fill-rule="evenodd" clip-rule="evenodd" d="M7.982.088C3.406.315.957 2.243.275 6.154-.091 8.25-.092 22.704.273 24.8c.592 3.395 2.524 5.34 5.89 5.927 2.11.367 16.75.365 18.724-.004 3.609-.673 5.484-2.75 5.971-6.61.245-1.94.152-16.432-.115-17.958-.582-3.323-2.51-5.26-5.853-5.883C23.61.032 11.692-.097 7.982.088zm13.817 4.167c2.783.676 4.306 2.201 4.95 4.953.138.589.289 10.688.174 11.635-.424 3.5-2.498 5.602-5.924 6-1.165.137-11.155.047-11.78-.105-2.864-.695-4.48-2.381-4.993-5.207-.144-.794-.144-11.275 0-12.069.55-3.033 2.517-4.887 5.625-5.304.941-.126 11.38-.042 11.948.097zM9.86 6.297c-1.896.35-3.012 1.269-3.46 2.85-.256.899-.255 11.584 0 12.493.473 1.678 1.357 2.561 3.036 3.034.58.163.596.164 6.145.164h5.564l.652-.204c1.577-.494 2.36-1.278 2.85-2.85l.204-.653.024-5.271c.035-7.794-.225-8.604-3.04-9.461-.678-.207-10.937-.294-11.975-.102zM22.251 8.13c.794.376.944 1.519.286 2.177-.504.503-.989.544-1.549.129-1.244-.923-.126-2.966 1.263-2.306zm-5.215 1.632c3.612.922 5.446 5.004 3.773 8.401-1.901 3.86-7.37 4.383-9.974.953-3.41-4.49.739-10.746 6.2-9.354zm-2.182 1.952c-2.718.52-4.046 3.571-2.553 5.868 2.066 3.18 7.019 1.707 7.019-2.086 0-2.37-2.183-4.219-4.466-3.782z" fill="#fff"/></svg>