<svg width="42" height="42" fill="none" xmlns="http://www.w3.org/2000/svg"><path fill-rule="evenodd" clip-rule="evenodd" d="M1.363.178c-2.536 1.212-1.3 3.947 1.79 3.957 2.327.008 2.902.416 3.217 2.285.075.447.926 3.89 1.89 7.653l1.752 6.842-.79.162c-7.307 1.494-6.629 12.017.804 12.462.777.047.908.078.87.212-1.601 5.578 4.045 10.194 9.074 7.419 2.294-1.266 3.616-4.295 2.996-6.867a10.094 10.094 0 01-.145-.665c-.002-.04 1.097-.073 2.441-.073h2.446l-.158.566c-.988 3.544 1.516 7.26 5.258 7.804 4.304.626 8.044-3.619 6.877-7.805l-.157-.566h.298c2.157 0 2.938-2.814 1.084-3.907l-.468-.276-15.317-.05-15.318-.049-.294-.212c-.683-.49-1.031-1.1-1.031-1.806 0-.704.348-1.315 1.03-1.806l.295-.212 11.832-.054c12.894-.059 12.095-.022 13.39-.617 1.475-.677 2.642-1.886 3.208-3.327.405-1.03 3.753-14.377 3.763-15 .015-1.013-.598-1.78-1.607-2.011-.292-.067-5.52-.102-15.375-.104l-14.932-.002-.383-.763C9.01 1.992 7.689.87 6.054.272 5.21-.037 1.95-.103 1.364.178zm34.428 13.94c-1.956 7.83-.195 6.841-12.2 6.844l-9.292.002-1.57-6.3-1.572-6.3h26.071l-1.437 5.753zM17.864 33.822c1.222.627 1.45 2.298.45 3.3-1.279 1.283-3.352.522-3.526-1.293-.157-1.643 1.578-2.775 3.076-2.007zm16.59-.074c2.273 1.036 1.112 4.538-1.312 3.955-2.363-.569-1.953-4.134.476-4.134.243 0 .619.08.835.18z" fill="#fff"/></svg>