<svg width="478" height="171" fill="none" xmlns="http://www.w3.org/2000/svg"><path d="M217.48 40.632h206.649v61.164H217.48V40.632z" fill="#fff"/><path fill-rule="evenodd" clip-rule="evenodd" d="M127.984 1.51c-.644.781-.869 1.421-.498 1.421.37 0-.024.703-.876 1.56-.852.86-2.248 1.292-3.102.961-.854-.33-2.1-.143-2.767.415-.667.559-4.214 1.236-7.879 1.506-8.52.627-11.818 1.31-12.619 2.616-.425.693.203.83 1.87.41 1.38-.35 2.746-.25 3.035.222.574.936-10.938 2.546-11.825 1.654-.3-.302.729-.585 2.285-.627 1.556-.041 2.258-.307 1.56-.589-.7-.281-4.41.171-8.245 1.007-7.814 1.701-21.234 4.149-27.796 5.071-2.384.335-5.083 1.013-6 1.508-3.822 2.06-6.586 1.079-8.167-2.901-1.628-4.1-6.75-6.426-8.343-3.789-2.65 4.387-7.203 7.176-9.112 5.579-1.11-.927-1.39-.842-1.39.424 0 .872-.695 1.585-1.546 1.585-.85 0-1.775.884-2.055 1.965-.28 1.08-1.546 2.227-2.813 2.547-1.266.32-2.061.974-1.766 1.455.295.48-.218.873-1.139.873-.92 0-1.341.33-.936.733.406.403-1.376 1.24-3.96 1.86-3.997.96-4.264 1.156-1.789 1.32 2.876.188 2.882.2.485.973-1.903.613-1.276.817 2.91.945 6.06.186 5.232.777-4.85 3.466-12.484 3.33-12.363 3.805.485 1.89 2.36-.352 2.543-.263.97.472-1.067.498-2.948.937-4.18.975-1.233.037-1.97.507-1.64 1.046.33.537.137.977-.427.977-.565 0-1.028.37-1.028.822 0 .452 2.073.479 4.608.058 6.282-1.041 7.032-1.032 7.032.097 0 .538-1.636 1.021-3.637 1.075-6.915.185-9.153 1.487-4.123 2.4l4.365.791-7.275 1.764c-6.822 1.654-6.959 1.738-2.21 1.337 2.787-.236 5.303-.042 5.593.429.543.886-.652 1.375-6.05 2.469-4.335.879-4.11 2.85.243 2.139 1.867-.306 3.394-.144 3.394.36s-.654.916-1.455.916c-2.052 0-1.821 1.938.243 2.032 1.352.061 1.402.19.242.635-2.357.904-2.969 2.655-1.176 3.37 1.37.55 1.29.678-.464.735-2.443.079-4.129 2.022-1.754 2.022.863 0 1.3.44.97.978-.596.97 1.215 1.263 6.79 1.097 2.497-.074 2.635.04.97.805-1.376.632-1.517.934-.486 1.038.8.08.146.614-1.455 1.188-6.04 2.164-7.204 3.68-2.883 3.757 3.04.055 3.444.246 1.913.909-1.782.772-1.744.848.485.938 2.123.086 2.215.222.728 1.094-3.135 1.84-1.931 3.14 2.278 2.463 3.762-.606 3.886-.55 2.307 1.041-1.58 1.592-1.573 1.722.145 2.402 1.677.664 1.66.724-.216.788-7.061.238-9.424 4.4-3.109 5.476l4.062.69-5.71 3.11 4.885.639c9.321 1.216 12.94 3.833 5.3 3.833-3.717 0-5.689 1.852-2.183 2.05.934.053-.266.63-2.667 1.282l-4.365 1.185 3.274.674c1.8.369 4.419.679 5.82.688 5.816.035 10.998 7.286 9.774 13.678-1.192 6.228-1.14 6.625.967 7.299 1.152.368 1.678 1.162 1.346 2.032-.897 2.356 1.552 4.618 3.383 3.125 1.023-.834 1.29-.861.826-.079-.379.634-.226 1.441.337 1.792.565.351.76 1.481.436 2.511-.336 1.065-.133 1.872.47 1.872.582 0 1.474 1.099 1.98 2.443.508 1.343 1.42 2.442 2.027 2.442.671 0 .939 1.132.683 2.887-.34 2.342-.042 2.941 1.588 3.176 1.265.182 2.008 1.011 2.008 2.243 0 1.92 4.6 7.329 6.233 7.329 1.072 0 2.172 2.856 1.514 3.929-.881 1.435 1.493 2.151 2.988.902 1.96-1.64 2.356-.98 2.585 4.303.222 5.144.444 5.454 1.684 2.347.796-1.995.882-1.905.939.977.033 1.746.497 3.176 1.03 3.176 1.219 0 1.206-3.241-.03-8.306-2.016-8.256-2.245-14.947-.57-16.634.864-.87 1.536-2.1 1.494-2.734-.053-.804-.225-.781-.568.076-.753 1.882-2.265.41-2.265-2.205 0-2.77 1.823-4.214 2.967-2.35.446.727.419 1.565-.06 1.863-1.125.701 3.625 6.839 5.295 6.839 2.065 0 2.495-4.745.489-5.387-1.127-.36-1.534-1.195-1.204-2.465.642-2.473 1.912-2.457 2.697.034.752 2.387 1.778 2.467 3.92.308 1.198-1.206 3.137-1.607 7.244-1.503 5.129.131 5.567-.021 5.112-1.773-.275-1.059-.014-1.917.585-1.917.596 0 1.083.439 1.083.977 0 1.583 4.59 1.116 5.217-.531.459-1.205.98-1.289 2.592-.42 1.612.87 1.786 1.366.865 2.485-1.193 1.448-.802 1.686 2.48 1.51 8.829-.475 53.579-4.703 68.382-6.461 4.563-.542 20.007-2.26 26.674-2.969 2.134-.226 12.391-1.096 22.794-1.933 10.403-.835 22.188-1.873 26.189-2.304 12.632-1.362 78.752-1.956 92.145-.827 4.001.337 7.493.629 7.76.648 1.041.074 38.352 1.051 56.742 1.487 10.702.253 18.529.096 17.459-.352-1.552-.649-1.12-.891 2.153-1.214 2.252-.221 4.871-.093 5.82.285.95.378 1.182.718.514.756-.666.037-1.212.469-1.212.96 0 .489.764.742 1.697.562a44.339 44.339 0 013.637-.499c1.651-.146 1.58-.289-.484-.955l-2.425-.782 2.425-.192c1.333-.105 5.622-.138 9.53-.07 4.468.075 6.886-.239 6.513-.846-.326-.532.84-1.412 2.593-1.958l3.187-.989-4.04.238c-2.223.131-3.879-.025-3.682-.347.198-.321-7.806-.595-17.783-.607-19.303-.023-47.898-1.879-51.121-3.318-1.216-.543.773-.653 5.335-.293 27.526 2.17 72.922 1.471 70.811-1.09-.852-1.035-.604-1.414 1.152-1.752 1.23-.236.056-.553-2.611-.702-5.394-.303 8.805-1.965 18.671-2.185 2.8-.064 5.092-.417 5.092-.789 0-.37-2.292-.765-5.092-.877-2.8-.112-5.734-.243-6.519-.29-7.182-.44-3.86-3.165 3.686-3.024l8.41.158-7.274-.902c-10.914-1.355-18.848-2.913-19.399-3.811-.271-.441-1.8-.995-3.398-1.231-1.599-.237.367-.527 4.368-.645 5.211-.155 6.724-.463 5.334-1.09-1.346-.606-.455-.744 2.91-.453 16.45 1.425 17.944 1.469 17.944.515 0-.552-1.418-1.01-3.152-1.015-1.734-.006-4.88-.298-6.99-.65-5.474-.91-1.572-2.314 4.454-1.603 2.473.292 5.287.085 6.254-.459 1.431-.808 1.081-.99-1.895-.99-2.007 0-3.911-.265-4.231-.587-.321-.323 1.455-.586 3.943-.586 3.88 0 4.527-.28 4.527-1.955 0-1.075.018-2.284.038-2.687.021-.402-1.398-1.004-3.152-1.337l-3.191-.604 2.91-.144c2.09-.103 2.529-.387 1.557-1.007-1.084-.691-.988-.944.485-1.272 1.919-.426-1.373-1.086-11.741-2.356l-5.82-.712 4.365-.844c2.401-.464 6.765-.84 9.699-.836 5.661.01 4.363-1.674-1.397-1.812-2.72-.066-2.766-.135-.97-1.503 2.191-1.67 6.247-1.97 6.247-.462 0 .568.437.763.97.43 2.868-1.786-7.638-5.221-14.064-4.599-2.021.196-2.506.007-1.588-.616 1.116-.76 1.116-.994 0-1.51-.727-.335 2.601-.357 7.396-.048 10.214.659 10.346-.16.337-2.073l-7.115-1.36 7.032.56c9.375.749 8.941-.717-.97-3.28-4.576-1.182-6.822-2.1-5.245-2.144 3.135-.086 8.802-3.898 6.104-4.106-.872-.067-1.913-.203-2.314-.303-.4-.099-3.346-.773-6.547-1.498-7.584-1.717-8.502-2.667-2.999-3.108 2.45-.196 4.454-.074 4.454.272 0 .346 1.286.82 2.858 1.052 1.573.232 2.639.063 2.368-.378-.27-.44.081-.846.779-.903.698-.057-.476-.682-2.61-1.39-2.134-.709-3.043-1.323-2.021-1.364 3.307-.134 1.089-.986-6.775-2.606-4.231-.87-8.416-2.227-9.299-3.013-.882-.787-4.811-1.87-8.729-2.408-10.045-1.379-12.488-3.903-3.191-3.297 3.705.242 5.863.21 4.796-.07-1.067-.279-2.813-.913-3.88-1.408-1.739-.807-8.114-1.912-19.399-3.363-2.134-.274-4.365-1.163-4.956-1.975-.593-.813-1.768-1.478-2.61-1.478-.844 0-1.804-.44-2.133-.977-.33-.537-1.81-.977-3.29-.977-4.21 0-4.351-1.18-.363-3.039l3.653-1.705-2.649-1.016c-1.697-.652-2.457-1.52-2.117-2.415.409-1.072-1.01-1.65-6.08-2.478-10.336-1.687-13.697-2.07-23.83-2.712-5.881-.373-9.463-1.007-9.472-1.678-.009-.673-.305-.62-.784.142-.605.958-1.175.912-2.653-.213-1.695-1.292-.875-1.439 8.221-1.466 5.557-.018 9.91-.226 9.674-.463-.504-.508-25.181-2.344-36.06-2.682-9.043-.28-11.469-1.343-5.221-2.287 6.854-1.036 5.433-2.157-2.939-2.32-5.384-.105-7.955-.59-9.214-1.738-1.618-1.476-1.747-1.469-1.747.084 0 1.735-.21 1.736-16.974.113-1.601-.155-3.347.048-3.88.45-.534.403-7.299 1.005-15.034 1.337-7.736.334-15.811 1.108-17.945 1.721-2.133.614-9.117 1.17-15.519 1.236-6.401.067-11.891.464-12.201.885-.308.42-5.109.912-10.669 1.093-5.559.182-10.545.461-11.078.622-3.909 1.178-18.787-1.39-19.317-3.332-.473-1.735-.721-1.838-1.496-.621-.741 1.16-1.176 1.21-2.134.244-1.735-1.748-10.167-1.585-10.851.21-.383 1.005-1.625 1.309-4.226 1.033-2.026-.214-5.648-.422-8.049-.461-3.126-.05-3.954-.332-2.919-.992 1.042-.663.638-.815-1.455-.54-1.595.208-3.177.41-3.514.446-.339.037-.867 1.038-1.175 2.223-.308 1.187-.864 1.85-1.236 1.475s-1.263-.192-1.978.406c-.716.6-1.302.7-1.302.227 0-.474.873-1.411 1.94-2.082 1.067-.672 1.938-1.547 1.936-1.945-.006-.967-10.691-.823-12.861.174-1.947.895-4.594-.851-4.594-3.03 0-.773-.396-1.158-.879-.857-.483.301-.632 1.5-.329 2.666.441 1.7.222 1.991-1.112 1.475-.913-.353-1.428-.262-1.143.201.284.465-.574.845-1.908.845-1.657 0-2.154-.348-1.569-1.1 1.034-1.33 1.084-4.519.069-4.519-.4 0-.875.444-1.054.987-.374 1.132-4.685 2.186-4.685 1.146 0-1.794-3.722-3.013-4.886-1.6zM320.071.489c0 .268.218.488.485.488a.488.488 0 000-.977.488.488 0 00-.485.489zm9.518.178c.699.283 1.536.248 1.858-.077.323-.324-.25-.555-1.272-.513-1.13.047-1.36.279-.586.59zM334.62.49c0 .268.218.488.485.488a.488.488 0 000-.977.488.488 0 00-.485.489zM124.141 2.443c0 .269.218.488.485.488a.489.489 0 000-.977.488.488 0 00-.485.489zm51.407 0c0 .269.218.488.485.488a.488.488 0 000-.977.488.488 0 00-.485.489zm-55.934 1.14a.914.914 0 001.294 0c.355-.358.064-.652-.647-.652-.711 0-1.002.294-.647.652zm-8.73.977a.914.914 0 001.294 0c.355-.358.064-.651-.647-.651-.711 0-1.002.293-.647.651zm-4.85.977a.914.914 0 001.294 0c.355-.358.064-.651-.647-.651-.711 0-1.002.293-.647.651zm2.587-.163c0 .269.219.489.485.489a.488.488 0 000-.977.489.489 0 00-.485.488zm27.806 1.14c-.356.358-.647.065-.647-.651s.291-1.01.647-.652a.93.93 0 010 1.304zm-34.272 0a.914.914 0 001.294 0c.355-.358.064-.651-.647-.651-.711 0-1.002.293-.647.652zm-4.203.815c0 .268.218.488.485.488a.488.488 0 000-.977.488.488 0 00-.485.489zm95.298.158c-.667.272-1.758.272-2.425 0-.667-.27-.121-.493 1.212-.493 1.334 0 1.88.222 1.213.493zm185.807 2.952c.699.282 1.536.247 1.858-.077.322-.325-.25-.555-1.273-.513-1.13.047-1.359.278-.585.59zm3.091-.179c0 .269.218.489.485.489a.488.488 0 000-.978.488.488 0 00-.485.489zm22.794 9.283c.329.537 1.036.977 1.569.977.534 0 .7-.44.371-.977-.33-.538-1.036-.977-1.57-.977-.533 0-.7.44-.37.977zm12.205 5.244c.223.198 2.15.654 4.284 1.014 2.78.469 3.467.372 2.425-.345-1.309-.898-7.682-1.533-6.709-.669zm11.559 2.084c0 .27.218.489.485.489a.489.489 0 000-.977.488.488 0 00-.485.488zm4.607.159c.667.271 1.758.271 2.425 0 .667-.27.121-.493-1.213-.493-1.333 0-1.879.222-1.212.493zm-19.157 2.773c0 .269.219.488.485.488a.488.488 0 000-.977.489.489 0 00-.485.489zm14.55 2.931c0 .269.218.489.485.489a.489.489 0 000-.977.488.488 0 00-.485.488zm-411.26 3.909a.488.488 0 01-.485.488.488.488 0 010-.977c.267 0 .485.22.485.489zm429.042 2.117a.914.914 0 001.294 0c.355-.358.064-.651-.647-.651-.711 0-1.002.293-.647.651zm9.134 1.95c.667.271 1.758.271 2.425 0 .667-.27.121-.493-1.213-.493s-1.879.222-1.212.493zm-203.448 7.17c3.45 3.476 2.37 9.4-2.718 14.894-2.274 2.457-2.619 2.553-4.158 1.15-1.721-1.57-3.767 1.17-2.461 3.298.267.435-1.124 1.812-3.091 3.058-15.073 9.548-7.833 26.804 7.864 18.743 1.348-.693 3.055-.985 4.121-.928 1.059.057 1.486.458.298 1.154-15.501 9.08-27.627-.226-24.07-11.473 1.071-3.387 3.564-6.95 7.816-10.24l4.275-3.31-.302-6.462c-.465-9.97 6.691-15.662 12.426-9.884zm129.809 1.88c11.664 2.27 7.625 6.426-6.246 6.426h-10.563l-.583 11.288 10.475-.27c17.604-.453 16.532 4.604-1.245 5.88l-9.617.69-.311 3.816c-.663 8.169-.379 8.399 10.395 8.399 10.32 0 13.367 1.243 10.77 4.397-1.508 1.829-19.902 2.083-23.727.327-3.955-1.814-4.611-6.086-3.729-24.267l.782-16.123 5.25-.24c2.888-.133 5.47-.463 5.74-.733.738-.745 7.872-.512 12.609.41zm-136.335 1.264c-1.673 2.104-2.286 5.255-1.46 7.503l.783 2.136 2.222-2.381c1.475-1.582 2.113-3.292 1.903-5.095-.356-3.05-1.948-4.05-3.448-2.163zm34.5 1.497c1.433 1.479 4.47 4.886 6.749 7.573l4.142 4.886 2.485-2.931c9.818-11.581 12.985-13.694 15.202-10.146.787 1.26-.422 3.28-5.958 9.957-8.312 10.025-8.281 7.561-.223 17.761 6.547 8.29 7.339 10.482 4.22 11.688-2.268.877-5.567-1.745-10.085-8.013-2.226-3.087-4.415-6.025-4.864-6.529-.482-.538-3.997 2.203-8.553 6.67-13.471 13.205-17.998 8.683-4.87-4.866 7.112-7.34 7.824-8.403 6.649-9.929-.724-.939-4.103-4.895-7.511-8.792-5.177-5.92-5.996-7.325-4.988-8.55 1.833-2.225 4.711-1.763 7.605 1.221zm68.779-.49c1.275 1.025 1.827 33.161.624 36.32-2.449 6.43-7.436-.502-6.545-9.096.327-3.144.281-9.511-.103-14.149l-.698-8.432-15.829.011-.049 12.453c-.069 17.807-1.895 21.406-10.44 20.572-3.722-.363-4.661-4.867-1.151-5.523 1.067-.2 2.421-.756 3.01-1.235 1.401-1.144 2.443-19.575 1.447-25.62-1.101-6.684 22.718-10.93 29.734-5.3zm72.841-1.332c4.211 2.688.737 4.504-9.562 4.998l-10.174.489-.583 8.03 6.185.5c25.18 2.037 20.798 26.133-4.756 26.152-8.011.007-13.892-30.021-7.797-39.812.888-1.426 24.519-1.742 26.687-.357zm50.908 7.604a.915.915 0 001.294 0c.355-.358.064-.652-.647-.652-.711 0-1.002.294-.647.652zm-211.772 2.768a.488.488 0 01-.485.489.488.488 0 010-.977c.267 0 .485.22.485.488zm.937 4.398c2.5 0 3.126 2.461 1.096 4.312-1.958 1.786-4.085-1.287-3.861-5.58.087-1.653.216-1.756.556-.442.245.94 1.239 1.71 2.209 1.71zM8.453 64.105c-.322.324-1.159.36-1.858.077-.774-.312-.544-.544.586-.59 1.022-.042 1.594.188 1.272.513zm451.06 1.058c-.927.244-2.673.253-3.88.02-1.206-.234-.448-.435 1.686-.445 2.134-.011 3.121.18 2.194.425zm-198.117 3.226c-.34.553.049.718.912.384 1.68-.65 1.988-1.35.593-1.35-.502 0-1.18.435-1.505.966zm141.363 2.601c-.792.33-1.212 2.679-1.212 6.774v6.27h5.118c12.161 0 13.641-11.52 1.672-13.006-2.401-.297-4.91-.315-5.578-.038zm-142.825 3.761a.488.488 0 01-.485.489.488.488 0 010-.977c.267 0 .485.22.485.488zm-8.469 5.12c-.485 3.21-2.201 3.515-2.201.392 0-1.47 1.945-4.43 2.488-3.785.106.125-.023 1.652-.287 3.394zm7.499-2.188a.488.488 0 01-.485.488.488.488 0 010-.977c.267 0 .485.22.485.489zm-1.455 2.443c.33.537.381.977.114.977-.266 0-.754-.44-1.084-.977-.33-.538-.381-.977-.114-.977.266 0 .754.44 1.084.977zM10.656 81.59c0 .27.218.489.485.489a.488.488 0 000-.977.488.488 0 00-.485.488zm248.727 7.69c3.199 5.895 2.743 6.523-1.809 2.497-4.39-3.883-5.692-6.256-4.867-8.872.829-2.632 2.821-.73 6.676 6.375zm216.203 10.062a.915.915 0 001.294 0c.355-.358.064-.652-.647-.652-.711 0-1.002.294-.647.652zm-20.045 8.794a.914.914 0 01-1.294 0c-.355-.358-.064-.651.647-.651.711 0 1.002.293.647.651zm-62.724 2.769a.488.488 0 01-.485.488.489.489 0 010-.977c.267 0 .485.22.485.489zm83.235.179c.699.282 1.536.247 1.858-.078.322-.324-.25-.555-1.272-.513-1.13.047-1.36.279-.586.591zm-20.62 3.327c.3.49 1.248.891 2.106.891 1.838 0 .856-1.265-1.222-1.571-.786-.117-1.185.189-.884.68zm-76.194.402a.488.488 0 01-.485.489.488.488 0 010-.977c.267 0 .485.22.485.488zm67.897 0a.489.489 0 01-.485.489.488.488 0 010-.977c.266 0 .485.22.485.488zm-118.819 5.734c1.6.168-1.674.369-7.275.447-5.602.077-9.683-.182-9.07-.577 1.027-.662 9.407-.595 16.345.13zm-31.524.129a.488.488 0 01-.485.489.488.488 0 010-.977c.267 0 .485.219.485.488zm3.617.102c-.322.324-1.159.359-1.858.077-.774-.312-.545-.543.585-.59 1.023-.042 1.595.188 1.273.513zm2.85.061a.914.914 0 01-1.294 0c-.355-.358-.064-.651.647-.651.711 0 1.002.293.647.651zm4.91-.061c-.322.324-1.159.359-1.859.077-.774-.312-.544-.543.586-.59 1.022-.042 1.595.188 1.273.513zm26.188 0c-.322.324-1.159.359-1.858.077-.774-.312-.544-.543.586-.59 1.022-.042 1.594.188 1.272.513zm3.173-.102a.488.488 0 01-.485.489.488.488 0 010-.977c.267 0 .485.219.485.488zm42.678 2.069c0 .205-1.418.367-3.152.359-2.144-.01-2.73-.285-1.833-.858 1.204-.768 4.985-.39 4.985.499zm72.099-.929a.914.914 0 001.294 0c.355-.358.064-.651-.647-.651-.711 0-1.002.293-.647.651zm-90.528.814a.488.488 0 01-.485.489.488.488 0 010-.977c.267 0 .485.22.485.488zm8.467.102c-.322.324-1.16.36-1.859.077-.774-.311-.544-.543.586-.59 1.022-.042 1.595.189 1.273.513zm-148.14.876a.488.488 0 01-.485.488.488.488 0 010-.977c.267 0 .485.22.485.489zm2.91 0a.489.489 0 01-.485.488.488.488 0 010-.977c.266 0 .485.22.485.489zm-18.429 1.947c0 .705-1.104.971-2.91.704-1.601-.237-2.91-.747-2.91-1.134 0-.387 1.309-.703 2.91-.703 1.6 0 2.91.51 2.91 1.133zm6.08-.818c-.657.268-1.966.284-2.91.036-.943-.248-.406-.467 1.194-.486 1.601-.02 2.373.182 1.716.45zm5.801.006c-.666.272-1.757.272-2.424 0-.667-.271-.122-.492 1.212-.492s1.88.221 1.212.492zm189.869-.158a.489.489 0 01-.485.488.488.488 0 010-.977c.266 0 .485.22.485.489zm5.819-.115c0 .868-3.924 1.321-4.421.511-.299-.486.574-.885 1.939-.885 1.365 0 2.482.169 2.482.374zm-379.574 2.232c-.356.358-.647.065-.647-.652 0-.716.291-1.009.647-.651a.93.93 0 010 1.303zm160.365-1.245c0 .211-.655.637-1.455.947-.8.309-1.455.136-1.455-.384 0-.521.655-.947 1.455-.947s1.455.173 1.455.384zm3.557.268a.914.914 0 01-1.294 0c-.355-.359-.064-.652.647-.652.711 0 1.002.293.647.652zm-7.517.675c-1.026.89-7.679 1.38-7.679.566 0-.503 1.818-.916 4.041-.916 2.223 0 3.86.158 3.638.35zm230.282.302a.914.914 0 001.294 0c.355-.358.064-.652-.647-.652-.711 0-1.002.294-.647.652zm12.547.026c.944.248 2.253.231 2.91-.037.657-.267-.115-.47-1.716-.45-1.6.02-2.138.238-1.194.487zm5.378-.01c.699.282 1.536.247 1.858-.077.322-.325-.25-.555-1.273-.513-1.13.047-1.359.278-.585.59zm3.091-.179c0 .269.218.489.485.489a.488.488 0 000-.978.488.488 0 00-.485.489zm-299.068 5.049a.914.914 0 01-1.294 0c-.355-.359-.064-.652.647-.652.711 0 1.002.293.647.652zm-79.214 4.722a.488.488 0 01-.484.489.488.488 0 010-.977c.266 0 .485.22.485.488zm9.7 1.955a.488.488 0 01-.485.488.488.488 0 010-.977c.267 0 .485.22.485.489zm16.948.445c.315.514 1.214.687 1.997.384 2.005-.775 1.77-1.318-.573-1.318-1.098 0-1.74.42-1.424.934zm35.429-.445c0 .268.219.488.485.488a.488.488 0 000-.977.489.489 0 00-.485.489zm-40.737 1.954c0 .269.218.489.484.489a.488.488 0 000-.978.488.488 0 00-.484.489zm26.188 0c0 .269.218.489.485.489a.488.488 0 000-.978.488.488 0 00-.485.489zm-43.648 3.909a.488.488 0 01-.485.488.488.488 0 010-.977c.267 0 .485.22.485.489zm10.67 15.634c0 .269.218.488.485.488a.488.488 0 000-.977.488.488 0 00-.485.489zm-15.52 1.954a.49.49 0 00.486.489.488.488 0 000-.977.488.488 0 00-.485.488z" fill="#000"/><path d="M173.594 55.018c0 5.602-3.975 7.806-6.273 3.478-2.931-5.516-13.718 1.741-18.025 12.125-4.404 10.618 3.51 16.577 14.319 10.78 5.194-2.785 6.856-3.002 8.423-1.102 4.587 5.57-13.672 12.55-22.518 8.609-16.529-7.366-6.131-36.117 13.89-38.407 9.978-1.141 10.184-1.05 10.184 4.517z" fill="#CA4F45"/><path fill-rule="evenodd" clip-rule="evenodd" d="M208.204 50.79c18.426 5.56 10.496 37.464-9.634 38.755-11.572.743-20.473-5.185-21.333-14.204-1.661-17.408 13.862-29.715 30.967-24.551zm-18.025 31.567c-9.623-4.6-7.269-20.647 3.736-25.476 9.557-4.194 17.023-.098 17.023 9.34 0 12.993-10.41 21.084-20.759 16.136z" fill="#CA4F45"/><path d="M69.754 51.863c.795 1.222 2.128 5.51 2.965 9.528 3.725 17.895 3.915 17.94 8.87 2.135 6.15-19.617 10.167-19.982 13.381-1.217.87 5.078 2.652 12.952 3.96 17.497 2.489 8.65 2.187 10.877-1.477 10.877-2.713 0-3.672-1.941-6.247-12.658-1.333-5.546-2.58-10.24-2.769-10.43-.19-.191-2.276 4.596-4.637 10.638-4.13 10.571-4.407 10.996-7.38 11.286l-3.089.301-2.972-9.35c-1.636-5.144-2.974-10.033-2.974-10.865 0-3.914-1.858.422-3.886 9.074-2.517 10.738-3.183 12.004-6.313 12.004-3.764 0-3.826-5.788-.174-16.123.76-2.15 2.164-7.566 3.121-12.036 2.473-11.544 6.293-15.777 9.621-10.66z" fill="#CA4F45"/><path fill-rule="evenodd" clip-rule="evenodd" d="M136.506 58.438c.408 4.03.626 12.825.485 19.543l-.255 12.214h-2.91c-2.862 0-2.914-.092-3.201-5.619-.184-3.563-.716-5.614-1.454-5.609-2.107.017-11.544 4.854-16.227 8.317-5.185 3.834-7.231 4.212-8.623 1.594-1.093-2.06 2.432-5.96 8.9-9.85 3.462-2.082 4.059-3.979 1.252-3.979-.713 0-2.651-1.276-4.308-2.835-9.272-8.727 2.567-21.79 19.297-21.293l6.304.188.74 7.329zm-14.002-.575c1.426-.316 3.029-.72 3.563-.9 2.776-.932 3.196-.167 3.622 6.605.543 8.596.371 8.826-5.94 7.983-11.67-1.56-12.546-11.187-1.245-13.688z" fill="#CA4F45"/><path fill-rule="evenodd" clip-rule="evenodd" d="M227.915 76.63c.006.391.021.773.044 1.146.997 16.428 17.588 15.366 23.232 10.628.162-.136.348-.236.54-.309.509-.193 1.055-.196 1.286-.187.161-1.453-1.626-1.96-4.097-.172-5.876 4.249-15.366 2.59-16.69-2.916-1.246-5.183 1.597-9.699 9.896-15.72l2.576-1.87 2.607 4.485c1.596 2.744 2.401 5.279 2.076 6.533-.682 2.628 6.672 13.182 10.915 15.667 3.862 2.26 3.793 1.376-.443-5.71-1.901-3.182-3.018-5.933-2.482-6.113.536-.18 1.72-2.608 2.629-5.395.909-2.787 2.63-6.066 3.824-7.286 1.194-1.22 2.635-4.064 3.204-6.32 1.268-5.034.761-6.021-.739-1.44-1.259 3.843-6.499 4.399-5.431.576 1.338-4.791 1.329-5.936-.027-2.953-2.119 4.664-2.846 8.935-1.521 8.935 1.657 0 1.314 1.92-1.387 7.766l-2.46 5.324-2.376-5.166c-.192-.417-1.432-.15-1.646-.587l-2.26.854-4.757-8.97s2.54-1.686 3.344-2.211c.803-.526-2.765 1.812-1.491.983 4.52-3.65 9.825-15.756 6.06-19.32-6.373-6.03-15.15 3.094-12.45 12.941.914 3.337.798 3.588-3.082 6.66-4.317 3.418-7.286 6.816-8.894 10.147zm17.918-17.215c-1.371 0-1.164-5.697.265-7.33 2.84-3.243 4.78 1.03 2.241 4.935-.857 1.317-1.985 2.395-2.506 2.395z" fill="#fff"/><path d="M245.35 66.819l-.648.354s4.481 8.734 4.536 8.96c.055.226.794.267 2.207-.587 0 0-2.06-7.586-5.164-9.344-1.274.83-.571.418-.931.617zm6.679 22.431c1.188-.697.761-1.098-.298-1.155a1.857 1.857 0 00-.54.309c-5.644 4.738-22.235 5.8-23.232-10.628-3.557 11.247 8.569 20.553 24.07 11.473z" fill="#CA4F45"/></svg>