<svg width="34" height="34" fill="none" xmlns="http://www.w3.org/2000/svg"><g filter="url(#filter0_d_6_333)"><mask id="a" fill="#fff"><path fill-rule="evenodd" clip-rule="evenodd" d="M17 26c7.18 0 13-5.82 13-13S24.18 0 17 0 4 5.82 4 13s5.82 13 13 13zm-6.983-7.38C6.16 14.082 8.059 7.28 13.793 5.083a1.25 1.25 0 01.26-.08c.016.004.683 2.072 1.481 4.596.862 2.725 1.166 4.087 1.47 4.086.302 0 .604-1.357 1.46-4.07C19.742 5.57 19.9 4.996 20.042 5c.043.001.085.054.156.081 5.726 2.139 7.648 9 3.791 13.538l-.323.381-2.138-.01-2.137-.008-.22-.95-.218-.95.127-.052c2.83-1.149 4.246-4.195 3.367-7.242-.281-.975-1.062-2.09-1.267-1.81-.126.173-1.214 3.662-2.489 7.98l-.796 2.697-.092.31h-1.601l-.185-.629c-1.729-5.888-3.043-10.155-3.191-10.358-.205-.28-.986.835-1.267 1.81-.88 3.047.537 6.093 3.367 7.242l.127.051-.219.95-.219.95-2.138.01L10.34 19l-.323-.38z"/></mask><path d="M13.793 5.084l-1.43-3.735 1.43 3.735zM10.017 18.62l3.048-2.59-3.048 2.59zm4.036-13.615l-.971 3.88.01.003.96-3.883zM15.534 9.6l-3.814 1.206L15.534 9.6zm1.47 4.086l-.003-4 .002 4zm1.46-4.07L14.65 8.412l3.814 1.204zM20.042 5l-.095 3.999L20.042 5zm.156.081l1.4-3.747-1.4 3.747zm3.791 13.538l-3.048-2.59 3.048 2.59zm-.323.381l-.017 4 1.86.008 1.205-1.418L23.666 19zm-2.138-.01l-.017 4 .017-4zm-2.137-.008l-3.898.898.712 3.088 3.169.014.017-4zm-.22-.95l-3.897.898 3.898-.898zm-.218-.95l-1.504-3.707-3.16 1.282.766 3.323 3.898-.899zm.127-.052l1.504 3.706h.001L19.08 17.03zm3.367-7.242l3.844-1.108-3.844 1.108zm-1.267-1.81l-3.232-2.357 3.232 2.357zm-2.489 7.98l3.837 1.132-3.837-1.133zm-.796 2.697l3.836 1.133-3.836-1.133zm-.092.31v4h2.989l.847-2.867-3.836-1.134zm-1.601 0l-3.838 1.126.843 2.873h2.995v-4zm-.185-.629l3.838-1.127-3.838 1.127zM12.826 7.978l3.232-2.356-3.232 2.356zm-1.267 1.81L7.715 8.68l3.844 1.108zm3.367 7.242l-1.505 3.706 1.505-3.706zm.127.051l3.898.899.765-3.323-3.16-1.282-1.503 3.706zm-.219.95l3.898.899-3.898-.898zm-.219.95l.017 4 3.17-.013.71-3.088-3.897-.898zm-2.138.01l.018 4-.018-4zM10.34 19l-3.048 2.59 1.205 1.418 1.86-.008-.017-4zM26 13a9 9 0 01-9 9v8c9.389 0 17-7.611 17-17h-8zm-9-9a9 9 0 019 9h8c0-9.389-7.611-17-17-17v8zm-9 9a9 9 0 019-9v-8C7.611-4 0 3.611 0 13h8zm9 9a9 9 0 01-9-9H0c0 9.389 7.611 17 17 17v-8zM12.363 1.349c-8.122 3.11-11.165 13.07-5.394 19.86l6.096-5.18c-1.94-2.283-1.188-5.928 2.158-7.21l-2.86-7.47zm2.66-.225a4.016 4.016 0 00-1.907-.012c-.146.034-.267.07-.333.09a6.84 6.84 0 00-.42.147l2.86 7.47c-.002.001-.025.01-.078.027-.02.006-.1.031-.216.058a3.798 3.798 0 01-.776.098c-.141.004-.558.01-1.071-.118l1.941-7.76zm4.325 7.27c-.4-1.267-.77-2.422-1.04-3.264a151.277 151.277 0 00-.44-1.338 7.112 7.112 0 00-.06-.168c-.009-.024-.038-.104-.08-.2-.015-.035-.07-.164-.156-.32a4.015 4.015 0 00-.797-1.03 4.001 4.001 0 00-1.761-.953L13.09 8.887a7.111 7.111 0 01-1.178-.504 7.13 7.13 0 01-.582-.448 3.997 3.997 0 01-.796-1.027c-.083-.154-.137-.28-.151-.311-.038-.088-.063-.156-.066-.164l-.01-.027.073.218a635.976 635.976 0 011.34 4.182l7.627-2.412zM17 9.686c1.571 0 2.524.894 2.835 1.233.333.363.49.686.513.731.059.12.043.115-.067-.223-.095-.29-.209-.667-.369-1.196-.154-.513-.341-1.13-.565-1.837l-7.628 2.412c.352 1.114.758 2.493.954 3.097.112.343.283.85.511 1.309.107.216.344.666.756 1.115.388.423 1.417 1.36 3.064 1.36l-.004-8zm-2.35-1.274c-.223.704-.408 1.319-.562 1.83-.16.526-.272.901-.366 1.19-.11.337-.125.34-.066.22.023-.046.18-.37.513-.733a3.845 3.845 0 012.832-1.233l.004 8c1.645 0 2.672-.936 3.061-1.36.411-.449.648-.9.755-1.115.228-.46.398-.965.51-1.307.194-.598.6-1.98.948-3.083l-7.63-2.409zm5.487-7.41c-1.629-.04-2.688.858-3.154 1.386-.402.457-.617.91-.688 1.06-.169.359-.309.77-.41 1.074-.231.69-.61 1.91-1.235 3.89l7.629 2.409c.652-2.066.99-3.157 1.193-3.764.116-.345.121-.33.062-.204-.016.034-.185.411-.547.822a3.893 3.893 0 01-1.082.857 3.946 3.946 0 01-1.958.467L20.137 1zm1.46.332c.499.186.877.468.76.388a4.418 4.418 0 00-.49-.288A4.076 4.076 0 0020.137 1l-.19 8a3.924 3.924 0 01-2.085-.659c-.034-.023.094.066.23.147.157.094.397.226.706.341l2.8-7.494zm5.44 19.876c5.763-6.782 2.721-16.828-5.44-19.876l-2.799 7.494c3.292 1.23 4.093 4.907 2.143 7.201l6.096 5.18zm-.323.38l.323-.38-6.096-5.18-.323.38 6.096 5.18zm-5.203 1.4l2.138.01.034-8-2.138-.01-.034 8zm-2.137-.008l2.137.009.034-8-2.137-.01-.034 8zm-4.1-4.052l.219.95 7.796-1.797-.22-.95-7.795 1.797zm-.219-.95l.219.95 7.796-1.796-.22-.95-7.795 1.796zm2.521-4.657l-.127.052 3.008 7.413.127-.052-3.008-7.413zm1.028-2.426c.345 1.197-.207 2.093-1.029 2.427l3.01 7.412c4.838-1.964 7.118-7.16 5.706-12.056l-7.687 2.217zm5.808-.562a3.895 3.895 0 01-3.66 1.565 3.691 3.691 0 01-1.737-.702 2.826 2.826 0 01-.418-.381c-.058-.066-.086-.107-.089-.11-.004-.006.023.034.058.104.034.071.044.106.038.086L26.29 8.68a8.969 8.969 0 00-1.23-2.562 5.762 5.762 0 00-1.226-1.305 4.311 4.311 0 00-2.024-.842 4.1 4.1 0 00-3.863 1.65l6.464 4.714zm-1.884 6.755a394.163 394.163 0 011.657-5.485c.22-.707.4-1.266.527-1.649.065-.195.108-.317.13-.38a3.305 3.305 0 01-.087.192 3.677 3.677 0 01-.343.567l-6.464-4.713c-.216.296-.344.56-.373.619a4.814 4.814 0 00-.116.255 7.52 7.52 0 00-.123.316c-.066.177-.139.39-.213.614-.152.455-.349 1.07-.575 1.797a401.866 401.866 0 00-1.693 5.602l7.673 2.265zm-.797 2.697l.796-2.697-7.672-2.265-.796 2.697 7.672 2.265zm-.092.311l.092-.31-7.672-2.267-.092.31 7.672 2.267zm-4.636 2.866h.8v-8h-.8v8zm-.801 0h.8v-8h-.8v8zm-4.023-3.5l.185.627 7.676-2.254-.185-.628-7.675 2.254zm-2.585-9.129c-.216-.296-.337-.554-.351-.583-.04-.08-.064-.14-.071-.157-.015-.037-.016-.042.002.008.033.091.088.253.17.5.16.485.383 1.194.662 2.1a606.393 606.393 0 012.174 7.26l7.675-2.254a611.314 611.314 0 00-2.204-7.362c-.284-.922-.525-1.686-.707-2.242-.09-.273-.175-.524-.249-.728a8.234 8.234 0 00-.133-.346 4.915 4.915 0 00-.119-.265c-.028-.057-.16-.335-.385-.644l-6.464 4.713zm5.808.562c-.006.02.004-.015.038-.086.035-.07.061-.11.058-.105a1.305 1.305 0 01-.09.111 2.82 2.82 0 01-.417.38 3.691 3.691 0 01-1.738.703 3.891 3.891 0 01-3.66-1.565l6.465-4.714a4.1 4.1 0 00-3.863-1.65 4.31 4.31 0 00-2.024.842c-.605.457-1.016 1.004-1.227 1.305A8.97 8.97 0 007.715 8.68l7.687 2.217zm1.028 2.427c-.82-.334-1.373-1.23-1.028-2.427L7.715 8.68c-1.412 4.895.868 10.092 5.706 12.056l3.01-7.412zm.127.051l-.127-.052-3.008 7.413.127.052 3.008-7.413zm2.175 5.555l.219-.95-7.796-1.797-.219.95 7.796 1.797zm-.22.95l.22-.95-7.796-1.797-.219.95 7.796 1.797zm-6.017 3.11l2.137-.008-.034-8-2.138.009.035 8zm-2.138.01l2.138-.01-.034-8-2.138.01.034 8zm-3.388-1.79l.323.38 6.096-5.18-.323-.38-6.096 5.18z" fill="#B80F0F" mask="url(#a)"/></g><defs><filter id="filter0_d_6_333" x="0" y="0" width="34" height="34" filterUnits="userSpaceOnUse" color-interpolation-filters="sRGB"><feFlood flood-opacity="0" result="BackgroundImageFix"/><feColorMatrix in="SourceAlpha" values="0 0 0 0 0 0 0 0 0 0 0 0 0 0 0 0 0 0 127 0" result="hardAlpha"/><feOffset dy="4"/><feGaussianBlur stdDeviation="2"/><feComposite in2="hardAlpha" operator="out"/><feColorMatrix values="0 0 0 0 0 0 0 0 0 0 0 0 0 0 0 0 0 0 0.25 0"/><feBlend in2="BackgroundImageFix" result="effect1_dropShadow_6_333"/><feBlend in="SourceGraphic" in2="effect1_dropShadow_6_333" result="shape"/></filter></defs></svg>